<svg width="25" height="25" viewBox="0 0 25 25" fill="none" xmlns="http://www.w3.org/2000/svg">
<path d="M12.5 6.25C11.1882 6.25 9.90972 6.66273 8.84556 7.42974C7.7814 8.19674 6.98555 9.27913 6.57073 10.5236C6.15591 11.768 6.14316 13.1114 6.53429 14.3635C6.92542 15.6156 7.70059 16.7129 8.75 17.5V22.5C8.75 23.163 9.01339 23.7989 9.48223 24.2678C9.95107 24.7366 10.587 25 11.25 25H13.75C14.413 25 15.0489 24.7366 15.5178 24.2678C15.9866 23.7989 16.25 23.163 16.25 22.5V17.5C17.2994 16.7129 18.0746 15.6156 18.4657 14.3635C18.8568 13.1114 18.8441 11.768 18.4293 10.5236C18.0145 9.27913 17.2186 8.19674 16.1544 7.42974C15.0903 6.66273 13.8118 6.25 12.5 6.25ZM12.5 5C12.8315 5 13.1495 4.8683 13.3839 4.63388C13.6183 4.39946 13.75 4.08152 13.75 3.75V1.25C13.75 0.918479 13.6183 0.600537 13.3839 0.366116C13.1495 0.131696 12.8315 0 12.5 0C12.1685 0 11.8505 0.131696 11.6161 0.366116C11.3817 0.600537 11.25 0.918479 11.25 1.25V3.75C11.25 4.08152 11.3817 4.39946 11.6161 4.63388C11.8505 4.8683 12.1685 5 12.5 5ZM23.75 11.25H21.25C20.9185 11.25 20.6005 11.3817 20.3661 11.6161C20.1317 11.8505 20 12.1685 20 12.5C20 12.8315 20.1317 13.1495 20.3661 13.3839C20.6005 13.6183 20.9185 13.75 21.25 13.75H23.75C24.0815 13.75 24.3995 13.6183 24.6339 13.3839C24.8683 13.1495 25 12.8315 25 12.5C25 12.1685 24.8683 11.8505 24.6339 11.6161C24.3995 11.3817 24.0815 11.25 23.75 11.25ZM3.75 11.25H1.25C0.918479 11.25 0.600537 11.3817 0.366116 11.6161C0.131696 11.8505 0 12.1685 0 12.5C0 12.8315 0.131696 13.1495 0.366116 13.3839C0.600537 13.6183 0.918479 13.75 1.25 13.75H3.75C4.08152 13.75 4.39946 13.6183 4.63388 13.3839C4.8683 13.1495 5 12.8315 5 12.5C5 12.1685 4.8683 11.8505 4.63388 11.6161C4.39946 11.3817 4.08152 11.25 3.75 11.25ZM7.075 5.525L5.275 3.75C5.03133 3.51959 4.70612 3.39542 4.37089 3.4048C4.03567 3.41417 3.71791 3.55633 3.4875 3.8C3.25709 4.04367 3.13292 4.36888 3.1423 4.70411C3.15167 5.03933 3.29383 5.35709 3.5375 5.5875L5.3375 7.325C5.45829 7.44164 5.60135 7.53274 5.75813 7.59288C5.9149 7.65301 6.08219 7.68094 6.25 7.675C6.41838 7.67436 6.5849 7.6397 6.73955 7.57311C6.89421 7.50653 7.03382 7.40938 7.15 7.2875C7.37313 7.04352 7.49051 6.72109 7.47645 6.39076C7.4624 6.06044 7.31805 5.74914 7.075 5.525ZM21.4875 3.8125C21.2533 3.57969 20.9365 3.44901 20.6063 3.44901C20.276 3.44901 19.9592 3.57969 19.725 3.8125L17.925 5.525C17.6922 5.7592 17.5615 6.07602 17.5615 6.40625C17.5615 6.73648 17.6922 7.0533 17.925 7.2875C18.0412 7.40938 18.1808 7.50653 18.3354 7.57311C18.4901 7.6397 18.6566 7.67436 18.825 7.675C19.1468 7.67372 19.4558 7.54835 19.6875 7.325L21.4875 5.5875C21.6047 5.4713 21.6977 5.33304 21.7611 5.18072C21.8246 5.0284 21.8572 4.86502 21.8572 4.7C21.8572 4.53499 21.8246 4.3716 21.7611 4.21928C21.6977 4.06696 21.6047 3.9287 21.4875 3.8125Z" fill="black"/>
</svg>
