<svg width="25" height="25" viewBox="0 0 25 25" fill="none" xmlns="http://www.w3.org/2000/svg">
<g clip-path="url(#clip0_1046_355)">
<path d="M12.5002 2.0835C18.2533 2.0835 22.9168 6.74704 22.9168 12.5002C22.9168 18.2533 18.2533 22.9168 12.5002 22.9168C6.74704 22.9168 2.0835 18.2533 2.0835 12.5002C2.0835 6.74704 6.74704 2.0835 12.5002 2.0835ZM11.7637 8.81683L8.81683 11.7637C8.62155 11.959 8.51184 12.224 8.51184 12.5002C8.51184 12.7764 8.62155 13.0413 8.81683 13.2366L11.7637 16.1835C11.959 16.3788 12.224 16.4885 12.5002 16.4885C12.7764 16.4885 13.0413 16.3788 13.2366 16.1835L16.1835 13.2366C16.3788 13.0413 16.4885 12.7764 16.4885 12.5002C16.4885 12.224 16.3788 11.959 16.1835 11.7637L13.2366 8.81683C13.0413 8.62155 12.7764 8.51184 12.5002 8.51184C12.224 8.51184 11.959 8.62155 11.7637 8.81683Z" fill="black"/>
</g>
<defs>
<clipPath id="clip0_1046_355">
<rect width="25" height="25" fill="white"/>
</clipPath>
</defs>
</svg>
