<svg width="32" height="38" viewBox="0 0 32 38" fill="none" xmlns="http://www.w3.org/2000/svg">
<path d="M28.6298 19.3699C28.4247 19.1197 28.2083 18.8689 27.9806 18.6174C28.1397 18.439 28.2936 18.2607 28.4424 18.0826C31.2512 14.7142 32.4366 11.3362 31.3382 9.3054C30.2849 7.35826 27.1518 6.778 23.2294 7.59201C22.843 7.67268 22.4588 7.76369 22.0767 7.86502C22.0035 7.59589 21.9257 7.32831 21.8433 7.06227C20.5127 2.78242 18.3632 -0.00147424 16.1662 5.85704e-07C14.0595 0.00102736 12.0234 2.60818 10.7246 6.64138C10.5968 7.03926 10.4786 7.44046 10.3699 7.84497C10.1144 7.77807 9.8579 7.71628 9.60029 7.65959C5.46185 6.7527 2.12859 7.34999 1.03229 9.38196C-0.0189318 11.3305 1.08045 14.5155 3.70585 17.7308C3.96623 18.0489 4.23397 18.3599 4.50909 18.6638C4.18476 19.0204 3.87765 19.3767 3.59141 19.7311C1.02964 22.901 -0.00687999 26.0339 1.04265 27.9741C2.12657 29.9781 5.41292 30.6332 9.41292 29.7931C9.7371 29.7245 10.0595 29.6473 10.3801 29.5616C10.4975 29.9991 10.6263 30.4329 10.7665 30.8628C12.0597 34.8151 14.0844 37.3383 16.1836 37.3375C18.3515 37.3361 20.5248 34.6251 21.8415 30.5071C21.9455 30.1816 22.044 29.8437 22.1373 29.4957C22.5514 29.6056 22.9682 29.7032 23.3876 29.7884C27.2416 30.5667 30.3011 29.9546 31.3487 28.013C32.4305 26.0075 31.3151 22.6439 28.6298 19.3699ZM2.32733 10.1779C3.00225 8.92706 5.72631 8.43908 9.29949 9.22203C9.52786 9.27215 9.76013 9.32815 9.99631 9.39005C9.64746 11.0371 9.40131 12.7071 9.25947 14.3889C7.97019 15.357 6.74096 16.4131 5.5795 17.5506C5.3236 17.2682 5.07454 16.9789 4.83231 16.6827L4.83241 16.6828C2.58291 13.9279 1.69381 11.3521 2.32733 10.1779ZM9.1256 20.8714C8.23256 20.1497 7.40262 19.4103 6.64934 18.6667C7.40209 17.9276 8.23256 17.1908 9.12378 16.471C9.09171 17.2042 9.07584 17.938 9.07616 18.6724C9.07664 19.4057 9.09312 20.1387 9.1256 20.8714ZM9.12453 28.228C7.60849 28.5878 6.04336 28.6468 4.50734 28.4019C4.08626 28.3669 3.67639 28.2401 3.30303 28.0294C2.92968 27.8187 2.60079 27.5284 2.33667 27.1767C1.69987 25.9993 2.53215 23.484 4.72304 20.7729C4.99848 20.4331 5.28295 20.1022 5.57646 19.7802C6.7381 20.9237 7.96932 21.984 9.26208 22.954C9.40586 24.6573 9.6549 26.3487 10.0076 28.017C9.71491 28.0951 9.42056 28.1654 9.12453 28.228ZM21.5453 13.2196C20.9587 12.8251 20.3648 12.4432 19.7636 12.074C19.1721 11.7106 18.5734 11.3608 17.9676 11.0247C19.0049 10.5592 20.0244 10.1617 21.0087 9.83774C21.2408 10.9547 21.4199 12.0834 21.5453 13.2196ZM12.1379 7.15983C13.2507 3.704 14.8973 1.59558 16.167 1.595C17.5192 1.59431 19.2761 3.86933 20.425 7.56455C20.4996 7.80544 20.5701 8.04768 20.6366 8.29128C19.1273 8.79092 17.6506 9.39661 16.2163 10.1044C14.7879 9.38828 13.3159 8.77584 11.8102 8.27123C11.9109 7.89796 12.0201 7.52749 12.1379 7.15983ZM11.4376 9.81786C12.4643 10.1628 13.474 10.5629 14.463 11.0164C13.2376 11.6913 12.0439 12.4265 10.8819 13.2219C11.0223 12.0308 11.2091 10.8897 11.4376 9.81786ZM10.8844 24.1193C11.4639 24.5153 12.0519 24.8966 12.6483 25.2632C13.2567 25.6371 13.8732 25.9952 14.4978 26.3377C13.5013 26.8069 12.4828 27.2213 11.4465 27.579C11.2154 26.4923 11.0265 25.3311 10.8844 24.1193ZM20.4271 29.9916C19.9618 31.5731 19.2277 33.0496 18.2616 34.3475L18.2614 34.3476C18.0227 34.7193 17.715 35.0349 17.3575 35.2748C17 35.5146 16.6002 35.6737 16.1828 35.7421C14.909 35.7429 13.2833 33.7166 12.1774 30.3367C12.0472 29.9371 11.9273 29.5338 11.8179 29.127C13.3308 28.6061 14.8088 27.9763 16.2418 27.242C17.688 27.9543 19.1764 28.5646 20.6975 29.0687C20.6144 29.3786 20.5243 29.6862 20.4271 29.9916ZM21.0607 27.5194C20.0651 27.1909 19.0307 26.7867 17.9785 26.3144C18.5717 25.9812 19.1691 25.6293 19.7709 25.2588C20.3884 24.8782 20.9901 24.4881 21.5762 24.0885C21.4594 25.2408 21.2874 26.386 21.0607 27.5195V27.5194ZM21.8413 18.6655C21.8426 19.7992 21.8095 20.9321 21.7419 22.064C20.8801 22.6865 19.9703 23.2943 19.0237 23.8775C18.081 24.4584 17.147 24.9923 16.2308 25.4754C15.2667 24.9822 14.3211 24.4508 13.3941 23.8811C12.4724 23.3148 11.5718 22.7118 10.6923 22.0721C10.6119 20.9405 10.5714 19.8069 10.5708 18.6712L10.571 18.6715C10.5703 17.5366 10.6099 16.4029 10.6899 15.2704C11.5514 14.6424 12.4546 14.0351 13.3884 13.4597C14.3265 12.8816 15.2722 12.35 16.2127 11.8682C17.1649 12.3622 18.1 12.8915 19.018 13.4563C19.9391 14.0213 20.8422 14.6179 21.7274 15.246C21.8034 16.3841 21.8414 17.5239 21.8415 18.6655H21.8413ZM23.5148 9.15785C26.8754 8.46016 29.4094 8.92949 30.0441 10.1029C30.7203 11.353 29.7512 14.1139 27.3263 17.0222L27.3262 17.0223C27.1922 17.1827 27.0532 17.3438 26.9092 17.5056C25.7276 16.3657 24.4747 15.3129 23.1591 14.3546C23.0263 12.6912 22.7894 11.0391 22.4499 9.40942C22.8118 9.3144 23.1667 9.23054 23.5148 9.15785ZM23.2876 16.4101C24.175 17.1016 25.0282 17.8417 25.8437 18.6276C25.0318 19.4264 24.1813 20.1793 23.2957 20.8834C23.3228 20.1442 23.3362 19.4047 23.3358 18.6647C23.3354 17.913 23.3194 17.1615 23.2876 16.4101ZM30.0534 27.2169C29.4177 28.3952 26.9612 28.8865 23.6652 28.221C23.2875 28.1449 22.8999 28.0543 22.5025 27.9492C22.8338 26.2986 23.0602 24.626 23.1802 22.9427C24.4936 21.9677 25.7425 20.8974 26.9182 19.7394C27.124 19.9675 27.3197 20.1946 27.5053 20.4206V20.4205C28.5567 21.6405 29.3886 23.0568 29.9595 24.5984C30.142 25.0048 30.2446 25.4468 30.2607 25.8972C30.2769 26.3476 30.2063 26.7968 30.0534 27.2169ZM14.6286 15.7525C14.0935 16.0822 13.662 16.5738 13.3888 17.1653C13.1155 17.7567 13.0127 18.4213 13.0934 19.0751C13.174 19.7289 13.4345 20.3425 13.8419 20.8383C14.2493 21.334 14.7852 21.6898 15.382 21.8604C15.9788 22.0311 16.6096 22.009 17.1947 21.797C17.7797 21.585 18.2927 21.1926 18.6688 20.6695C19.0449 20.1463 19.2672 19.5158 19.3076 18.8578C19.348 18.1998 19.2046 17.5438 18.8957 16.9727C18.4814 16.207 17.7991 15.6483 16.9989 15.4195C16.1987 15.1907 15.3461 15.3104 14.6286 15.7525L14.6286 15.7525Z" fill="white"/>
</svg>
