<svg width="25" height="18" viewBox="0 0 25 18" fill="none" xmlns="http://www.w3.org/2000/svg">
<path d="M12.4343 0C10.2813 0 8.53598 2.07974 8.53598 4.64523C8.53598 6.42448 9.37548 7.96975 10.6082 8.75L9.17871 9.42619L5.37456 11.2269C5.00706 11.4145 4.82365 11.7325 4.82365 12.1826V16.4587C4.85388 16.9933 5.16817 17.4916 5.67773 17.5H19.2115C19.7932 17.4484 20.0875 16.9701 20.0933 16.4587V12.1826C20.0933 11.7325 19.9098 11.4145 19.5424 11.2269L15.8759 9.42619L14.3522 8.68942C15.5344 7.89161 16.3327 6.37974 16.3327 4.64525C16.3326 2.07974 14.5873 0 12.4343 0ZM6.14631 1.63351C5.21979 1.66943 4.4855 2.07861 3.92763 2.7306C3.31054 3.51559 3.00971 4.44759 3.0039 5.37475C3.04179 6.74574 3.64283 8.04364 4.71283 8.72253L0.440896 10.7487C0.146875 10.8612 0 11.1237 0 11.5363V14.9681C0.0229583 15.4233 0.2545 15.8058 0.688646 15.8124H3.5279V12.1826C3.57488 11.2122 4.02138 10.4278 4.82365 10.045L7.66213 8.66682C7.88263 8.53552 8.09402 8.35706 8.29615 8.13201C7.12581 6.28901 6.96329 4.08159 7.71754 2.14006C7.22698 1.83364 6.67567 1.63672 6.14631 1.63351ZM18.8252 1.63351C18.2193 1.64646 17.6594 1.87419 17.1994 2.19579C17.9331 4.15491 17.7307 6.36369 16.6477 8.07545C16.8866 8.35676 17.1353 8.57252 17.3925 8.72257L20.121 10.045C20.9521 10.5103 21.3808 11.3016 21.389 12.1826V15.8124H24.3106C24.791 15.7701 24.9958 15.3789 25 14.9682V11.5364C25 11.1612 24.8531 10.8987 24.5591 10.7487L20.3418 8.69427C21.4355 7.87122 21.9847 6.63771 21.9953 5.37475C21.9662 4.37513 21.667 3.44695 21.0716 2.7306C20.4494 2.0417 19.6776 1.64081 18.8252 1.63351Z" fill="white"/>
</svg>
