<svg width="874" height="179" viewBox="0 0 874 179" fill="none" xmlns="http://www.w3.org/2000/svg">
<path d="M0 112.132V154.131H38.7236L103.293 84.0814L167.824 154.131H206.56V112.09L103.267 0L0 112.132Z" fill="white"/>
<path d="M38.7364 28.0225H0V70.0632H38.7364V28.0225Z" fill="white"/>
<path d="M241.294 107.566H274.412C276.015 117.296 282.416 123.199 293.934 123.199C303.541 123.199 308.813 119.036 308.813 114.164V113.12C308.813 107.037 305.453 104.782 285.289 100.967C258.571 95.928 244.962 85.5152 244.962 63.2838V61.5437C244.962 37.2241 265.921 23.1642 291.843 23.1642C320.331 23.1642 338.725 37.9202 340.495 64.4949H307.53C306.735 54.9453 301.13 50.602 291.369 50.602C282.57 50.602 278.414 54.9452 278.414 59.6365V60.4996C278.414 66.054 281.3 68.4901 301.13 71.6084C325.129 75.4227 342.419 85.8493 342.419 108.944V110.684C342.419 136.563 320.819 150.971 293.447 150.971C261.124 150.971 243.038 134.294 241.281 107.552L241.294 107.566Z" fill="white"/>
<path d="M384.349 148.729H352.347V20.213H384.349V87.0744L408.194 58.5925H442.441L411.721 94.1879L443.724 148.715H409.156L390.275 115.194L384.349 122.141V148.729Z" fill="white"/>
<path d="M463.233 178.241L474.431 147.323L443.39 58.5786H476.996L491.233 109.988L505.15 58.5786H537.64L496.351 178.241H463.233Z" fill="white"/>
<path d="M545.169 148.715V25.4054H600.221C625.182 25.4054 644.383 40.1614 644.383 67.7802V68.8242C644.383 87.4084 636.226 99.9093 623.258 106.341L646.782 148.715H610.932L591.409 111.199H578.442V148.715H545.157H545.169ZM578.455 82.0211H596.053C604.21 82.0211 609.816 78.2068 609.816 68.8242V67.7802C609.816 58.3976 604.21 54.5833 596.053 54.5833H578.455V82.0211Z" fill="white"/>
<path d="M686.788 49.725H653.824V20.199H686.788V49.725ZM686.314 58.5786V148.715H654.311V58.5786H686.314Z" fill="white"/>
<path d="M695.908 119.022H725.986C726.782 124.41 730.784 128.057 737.672 128.057C743.918 128.057 746.637 125.621 746.637 122.503C746.637 119.384 745.842 116.767 731.438 114.345C707.439 110.35 697.999 102.359 697.999 86.2113C697.999 67.808 713.365 56.3373 736.722 56.3373C760.08 56.3373 775.125 67.7941 776.408 86.9073H746.804C746.483 81.7009 742.648 78.9168 736.568 78.9168C731.13 78.9168 728.565 81.3529 728.565 84.3041C728.565 87.7843 730.168 89.8585 744.085 91.7657C769.533 95.2458 777.691 104.447 777.691 119.551C777.691 138.303 763.132 150.985 737.684 150.985C710.646 150.985 697.037 138.651 695.921 119.022H695.908Z" fill="white"/>
<path d="M784.553 104.086V103.041C784.553 74.9076 802.959 56.3234 830.318 56.3234C860.397 56.3234 875.763 78.9029 873.839 111.199H815.106C816.389 122.141 820.865 126.484 829.985 126.484C837.027 126.484 841.028 122.489 842.144 119.022H873.352C869.35 138.122 853.355 150.985 830.305 150.985C802.305 150.985 784.54 132.929 784.54 104.099L784.553 104.086ZM842.157 94.7029C842.157 86.5454 838.322 80.81 829.831 80.81C821.34 80.81 816.709 84.6243 815.273 94.7029H842.157Z" fill="white"/>
</svg>
