<?xml version="1.0" encoding="UTF-8"?><svg id="Layer_2" xmlns="http://www.w3.org/2000/svg" viewBox="0 0 681.4 128.04"><defs><style>.cls-1{fill:#FFFFFF;}</style></defs><g id="Layer_1-2"><g><g><polygon class="cls-1" points="0 80.55 0 110.72 30.19 110.72 80.53 60.4 130.84 110.72 161.04 110.72 161.04 80.52 80.52 0 20.13 60.41 0 80.55"/><rect class="cls-1" y="20.13" width="30.2" height="30.2"/></g><g><path class="cls-1" d="m188.12,77.27h25.82c1.25,6.99,6.24,11.23,15.22,11.23,7.49,0,11.6-2.99,11.6-6.49v-.75c0-4.37-2.62-5.99-18.34-8.73-20.83-3.62-31.44-11.1-31.44-27.07v-1.25c0-17.47,16.34-27.57,36.55-27.57,22.21,0,36.55,10.6,37.93,29.69h-25.7c-.62-6.86-4.99-9.98-12.6-9.98-6.86,0-10.1,3.12-10.1,6.49v.62c0,3.99,2.25,5.74,17.71,7.98,18.71,2.74,32.19,10.23,32.19,26.82v1.25c0,18.59-16.84,28.94-38.18,28.94-25.2,0-39.3-11.98-40.67-31.19Z"/><path class="cls-1" d="m299.65,87.75v19.09h-24.95V14.52h24.95v48.03l18.59-20.46h26.7l-23.95,25.57,24.95,39.17h-26.95l-14.72-24.08-4.62,4.99Z"/><path class="cls-1" d="m361.15,128.04l8.73-22.21-24.2-63.75h26.2l11.1,36.93,10.85-36.93h25.33l-32.19,85.96h-25.82Z"/><path class="cls-1" d="m425.03,106.84V18.26h42.92c19.46,0,34.43,10.6,34.43,30.44v.75c0,13.35-6.36,22.33-16.47,26.95l18.34,30.44h-27.95l-15.22-26.95h-10.11v26.95h-25.95Zm25.95-47.91h13.72c6.36,0,10.73-2.74,10.73-9.48v-.75c0-6.74-4.37-9.48-10.73-9.48h-13.72v19.71Z"/><path class="cls-1" d="m535.44,35.73h-25.7V14.52h25.7v21.21Zm-.37,6.36v64.75h-24.95V42.09h24.95Z"/><path class="cls-1" d="m542.55,85.5h23.45c.62,3.87,3.74,6.49,9.11,6.49,4.87,0,6.99-1.75,6.99-3.99s-.62-4.12-11.85-5.86c-18.71-2.87-26.07-8.61-26.07-20.21,0-13.22,11.98-21.46,30.19-21.46s29.94,8.23,30.94,21.96h-23.08c-.25-3.74-3.24-5.74-7.98-5.74-4.24,0-6.24,1.75-6.24,3.87,0,2.5,1.25,3.99,12.1,5.36,19.84,2.5,26.2,9.11,26.2,19.96,0,13.47-11.35,22.58-31.19,22.58-21.08,0-31.69-8.86-32.56-22.96Z"/><path class="cls-1" d="m611.66,74.77v-.75c0-20.21,14.35-33.56,35.68-33.56,23.45,0,35.43,16.22,33.93,39.42h-45.79c1,7.86,4.49,10.98,11.6,10.98,5.49,0,8.61-2.87,9.48-5.36h24.33c-3.12,13.72-15.59,22.96-33.56,22.96-21.83,0-35.68-12.97-35.68-33.68Zm44.91-6.74c0-5.86-2.99-9.98-9.61-9.98s-10.23,2.74-11.35,9.98h20.96Z"/></g></g></g></svg>