<svg width="25" height="27" viewBox="0 0 25 27" fill="none" xmlns="http://www.w3.org/2000/svg">
<path d="M6.26836 4.84786L9.08423 7.84021L7.34574 9.69572L4.54212 6.69031L1.73849 9.69572L0 7.84021L2.81587 4.84786L0 1.85552L1.73849 0L4.54212 3.00541L7.34574 0L9.08423 1.85552L6.26836 4.84786ZM25 18.8426L23.2615 16.9871L20.4579 19.9925L17.6543 16.9871L15.9158 18.8426L18.7316 21.835L15.9158 24.8273L17.6543 26.6828L20.4579 23.6774L23.2615 26.6828L25 24.8273L22.1841 21.835L25 18.8426ZM22.784 6.58577L18.8418 12.0347L16.9074 10.3752L18.3399 8.41516C16.5128 8.81127 14.8085 9.69147 13.3836 10.9748C11.9588 12.258 10.8592 13.9032 10.1861 15.7588C11.2517 16.579 12.0076 17.7786 12.3175 19.1413C12.6274 20.5039 12.4708 21.9399 11.8761 23.1902C11.2813 24.4405 10.2875 25.4228 9.0739 25.9599C7.86031 26.497 6.50684 26.5535 5.25763 26.1193C4.00842 25.6851 2.94571 24.7887 2.26121 23.5919C1.5767 22.395 1.31546 20.9765 1.5246 19.5921C1.73375 18.2078 2.39952 16.9488 3.40181 16.0422C4.4041 15.1357 5.67693 14.6412 6.9907 14.6481C7.31145 14.6495 7.6313 14.6845 7.94564 14.7527C8.79385 12.506 10.1482 10.5172 11.8887 8.96276C13.6292 7.40827 15.702 6.33599 17.9236 5.84096L16.1729 4.42972L17.7277 2.36513L22.784 6.58577ZM10.0514 20.5283C10.0514 19.8822 9.87191 19.2506 9.5356 18.7134C9.19928 18.1762 8.72126 17.7574 8.16199 17.5102C7.60271 17.2629 6.9873 17.1982 6.39358 17.3243C5.79986 17.4503 5.25449 17.7615 4.82644 18.2183C4.39839 18.6752 4.10688 19.2573 3.98878 19.891C3.87068 20.5247 3.9313 21.1815 4.16295 21.7784C4.39461 22.3753 4.78691 22.8855 5.29025 23.2445C5.79358 23.6034 6.38534 23.795 6.9907 23.795C7.80245 23.795 8.58096 23.4509 9.15496 22.8382C9.72895 22.2256 10.0514 21.3947 10.0514 20.5283Z" fill="white"/>
</svg>
