<svg width="29" height="17" viewBox="0 0 29 17" fill="none" xmlns="http://www.w3.org/2000/svg">
<path d="M19.2314 0H15.4311C15.0772 0 14.7365 0.132722 14.4755 0.371621L10.1267 4.35328C10.1223 4.3577 10.1178 4.36655 10.1134 4.37097C9.37901 5.06113 9.39228 6.16272 10.0205 6.84845C10.5824 7.46339 11.7636 7.62708 12.5024 6.9679C12.5068 6.96347 12.5157 6.96347 12.5201 6.95905L16.0549 3.72064C16.3425 3.45962 16.7937 3.47731 17.0548 3.76488C17.3202 4.05244 17.2981 4.49927 17.0105 4.76471L15.8558 5.82207L22.2973 11.0513C22.4256 11.1575 22.5406 11.2725 22.6468 11.392V2.8314L20.2312 0.415862C19.9702 0.150418 19.6074 0 19.2314 0ZM24.0669 2.84025V12.7457C24.0669 13.5288 24.6995 14.1614 25.4826 14.1614H28.314V2.84025H24.0669ZM26.1904 12.7457C25.8011 12.7457 25.4826 12.4272 25.4826 12.0379C25.4826 11.6486 25.8011 11.33 26.1904 11.33C26.5798 11.33 26.8983 11.6486 26.8983 12.0379C26.8983 12.4272 26.5798 12.7457 26.1904 12.7457ZM0 14.157H2.8314C3.61446 14.157 4.2471 13.5244 4.2471 12.7413V2.84025H0V14.157ZM2.12355 11.33C2.51287 11.33 2.8314 11.6486 2.8314 12.0379C2.8314 12.4272 2.51287 12.7457 2.12355 12.7457C1.73423 12.7457 1.4157 12.4272 1.4157 12.0379C1.4157 11.6441 1.73423 11.33 2.12355 11.33ZM21.408 12.1529L14.8029 6.79094L13.4757 8.00755C12.1617 9.20647 10.1488 9.09145 8.97642 7.81289C7.78635 6.51222 7.87925 4.49927 9.17108 3.31362L12.79 0H9.0826C8.70655 0 8.3482 0.150418 8.08276 0.415862L5.6628 2.8314V12.7369H6.4724L10.4762 16.3602C11.6884 17.3467 13.4713 17.1609 14.4578 15.9487L14.4667 15.9399L15.2586 16.6256C15.962 17.2008 17.0017 17.0902 17.5724 16.3867L18.9615 14.679L19.2004 14.8737C19.8065 15.3648 20.7002 15.2763 21.1913 14.6658L21.6115 14.1481C22.107 13.5376 22.0141 12.6484 21.408 12.1529Z" fill="white"/>
</svg>
