<svg width="25" height="27" viewBox="0 0 25 27" fill="none" xmlns="http://www.w3.org/2000/svg">
<path d="M17.95 16.0097C18.05 15.1292 18.125 14.2486 18.125 13.3414C18.125 12.4342 18.05 11.5537 17.95 10.6731H22.175C22.375 11.527 22.5 12.4209 22.5 13.3414C22.5 14.262 22.375 15.1559 22.175 16.0097H17.95ZM15.7375 23.4275C16.4875 21.9466 17.0625 20.3457 17.4625 18.678H21.15C19.939 20.9037 18.0176 22.5897 15.7375 23.4275ZM15.425 16.0097H9.575C9.45 15.1292 9.375 14.2486 9.375 13.3414C9.375 12.4342 9.45 11.5403 9.575 10.6731H15.425C15.5375 11.5403 15.625 12.4342 15.625 13.3414C15.625 14.2486 15.5375 15.1292 15.425 16.0097ZM12.5 23.9612C11.4625 22.3602 10.625 20.5858 10.1125 18.678H14.8875C14.375 20.5858 13.5375 22.3602 12.5 23.9612ZM7.5 8.00485H3.85C5.04857 5.77312 6.96849 4.08446 9.25 3.25531C8.5 4.7362 7.9375 6.33717 7.5 8.00485ZM3.85 18.678H7.5C7.9375 20.3457 8.5 21.9466 9.25 23.4275C6.97328 22.5892 5.05606 20.903 3.85 18.678ZM2.825 16.0097C2.625 15.1559 2.5 14.262 2.5 13.3414C2.5 12.4209 2.625 11.527 2.825 10.6731H7.05C6.95 11.5537 6.875 12.4342 6.875 13.3414C6.875 14.2486 6.95 15.1292 7.05 16.0097H2.825ZM12.5 2.70831C13.5375 4.30928 14.375 6.09703 14.8875 8.00485H10.1125C10.625 6.09703 11.4625 4.30928 12.5 2.70831ZM21.15 8.00485H17.4625C17.0713 6.35246 16.492 4.75741 15.7375 3.25531C18.0375 4.09582 19.95 5.79018 21.15 8.00485ZM12.5 0C5.5875 0 0 6.00364 0 13.3414C0 16.8798 1.31696 20.2732 3.66117 22.7752C4.8219 24.0141 6.19989 24.9968 7.71646 25.6673C9.23303 26.3378 10.8585 26.6828 12.5 26.6828C15.8152 26.6828 18.9946 25.2772 21.3388 22.7752C23.683 20.2732 25 16.8798 25 13.3414C25 11.5894 24.6767 9.85453 24.0485 8.23588C23.4203 6.61722 22.4996 5.14648 21.3388 3.90761C20.1781 2.66875 18.8001 1.68602 17.2835 1.01556C15.767 0.345086 14.1415 0 12.5 0Z" fill="black"/>
</svg>
