<svg width="220" height="80" viewBox="0 0 220 80" fill="none" xmlns="http://www.w3.org/2000/svg">
<path d="M168.554 31.4457H163.996C163.733 31.4454 163.473 31.3891 163.234 31.2803C162.994 31.1716 162.781 31.013 162.607 30.8152L160.758 28.7278C160.622 28.5749 160.454 28.4525 160.267 28.3688C160.08 28.285 159.877 28.2417 159.672 28.2417C159.467 28.2417 159.264 28.285 159.077 28.3688C158.89 28.4525 158.722 28.5749 158.586 28.7278L157.001 30.517C156.746 30.8081 156.431 31.0416 156.079 31.2017C155.726 31.3618 155.343 31.445 154.956 31.4457H130.009C129.29 33.5072 128.835 35.6515 128.654 37.8273H152.204C152.408 37.8271 152.61 37.7854 152.797 37.7048C152.985 37.6243 153.154 37.5065 153.295 37.3587L155.493 35.0668C155.629 34.9264 155.792 34.8149 155.972 34.7387C156.152 34.6626 156.345 34.6235 156.541 34.6237H156.626C156.832 34.6247 157.035 34.6683 157.222 34.7519C157.41 34.8355 157.578 34.9573 157.717 35.1094L159.566 37.1968C159.739 37.3951 159.952 37.554 160.192 37.6627C160.431 37.7715 160.691 37.8276 160.954 37.8273H180.167C179.991 35.6509 179.536 33.5061 178.813 31.4457H168.588H168.554Z" fill="black"/>
<path d="M142.9 51.2467C143.104 51.2454 143.306 51.2033 143.493 51.1228C143.68 51.0424 143.85 50.9251 143.991 50.7781L146.181 48.4862C146.318 48.3469 146.481 48.2361 146.66 48.1601C146.84 48.0841 147.033 48.0443 147.229 48.0431H147.322C147.528 48.044 147.731 48.0877 147.919 48.1713C148.106 48.2549 148.275 48.3766 148.413 48.5288L150.253 50.6162C150.427 50.8132 150.641 50.9712 150.88 51.0798C151.12 51.1885 151.379 51.2453 151.642 51.2467H177.688C178.681 49.2065 179.397 47.0432 179.818 44.814H154.812C154.551 44.813 154.293 44.7571 154.055 44.65C153.817 44.5428 153.605 44.3868 153.431 44.192L151.582 42.1045C151.446 41.9496 151.278 41.8254 151.09 41.7402C150.902 41.655 150.698 41.6108 150.492 41.6104C150.287 41.6098 150.083 41.6536 149.897 41.7389C149.71 41.8242 149.544 41.949 149.41 42.1045L147.825 43.8938C147.567 44.1836 147.251 44.4154 146.897 44.5741C146.543 44.7327 146.16 44.8144 145.772 44.814H129.004C129.421 47.0487 130.135 49.2177 131.125 51.2637L142.9 51.2467Z" fill="black"/>
<path d="M161.382 24.4676C161.587 24.4675 161.79 24.4259 161.979 24.3454C162.168 24.2649 162.339 24.1471 162.481 23.999L164.671 21.7156C164.806 21.5733 164.968 21.4599 165.148 21.3822C165.328 21.3046 165.522 21.2644 165.718 21.264H165.812C166.018 21.2634 166.221 21.3073 166.407 21.3926C166.594 21.4779 166.76 21.6026 166.894 21.7582L168.743 23.8456C168.919 24.0402 169.133 24.1961 169.372 24.3032C169.611 24.4103 169.87 24.4663 170.132 24.4676H175.082C172.674 21.261 169.553 18.6586 165.965 16.8664C162.378 15.0741 158.422 14.1411 154.412 14.1411C150.402 14.1411 146.447 15.0741 142.859 16.8664C139.272 18.6586 136.15 21.261 133.742 24.4676H161.382Z" fill="black"/>
<path d="M151.429 57.6369H144.656C144.394 57.6365 144.135 57.58 143.897 57.4713C143.659 57.3625 143.447 57.204 143.276 57.0064L141.435 54.919C141.298 54.7658 141.13 54.6434 140.942 54.5595C140.754 54.4757 140.55 54.4324 140.345 54.4324C140.139 54.4324 139.935 54.4757 139.748 54.5595C139.56 54.6434 139.391 54.7658 139.254 54.919L137.661 56.7423C137.406 57.0338 137.091 57.2675 136.739 57.4277C136.386 57.5879 136.003 57.6708 135.616 57.671H135.514C137.932 60.2648 140.858 62.3332 144.11 63.7474C147.361 65.1616 150.87 65.8915 154.416 65.8915C157.962 65.8915 161.47 65.1616 164.722 63.7474C167.974 62.3332 170.9 60.2648 173.318 57.671L151.429 57.6369Z" fill="black"/>
<path d="M40.1046 64.1888L34.8476 51.4085H11.3404L6.08342 64.1888H0L23.0557 15.8452L46.188 64.1888H40.1046ZM13.3256 46.5605H32.7942L23.0045 25.9502L13.3256 46.5605Z" fill="black"/>
<path d="M54.5898 64.1888V15.8452H68.0518C78.5742 15.8452 84.1038 20.6591 84.1038 29.7502C84.1038 38.4919 78.2334 43.5529 67.9836 43.5529H60.2643V64.1888H54.5898ZM60.2643 38.4919H66.6885C74.8168 38.4919 78.3868 35.8336 78.3868 29.7502C78.3868 23.4623 74.7657 20.8636 66.7056 20.8636H60.2643V38.4919Z" fill="black"/>
<path d="M104.705 21.0001H88.0312V15.8113H127.045V21.0001H110.371V64.189H104.705V21.0001Z" fill="black"/>
<path d="M188.16 55.3706L193.042 52.0562L193.417 52.8401C196.425 58.31 199.705 60.5082 204.689 60.5082C210.227 60.5082 214.121 56.6827 214.121 52.0306C214.121 47.6598 211.932 44.7203 203.19 41.0992C193.144 36.9328 189.728 32.6301 189.728 26.4786C189.728 19.7817 194.993 14.5503 204.076 14.5503C210.773 14.5503 215.348 17.4131 217.947 22.0651L213.985 24.8001L212.826 24.5189C210.773 21.3153 208.242 19.4664 203.94 19.4664C198.683 19.4664 195.607 22.4059 195.607 26.3678C195.607 30.0571 197.583 32.1786 206.129 36.0723C217.265 41.1248 220 45.2912 220 51.988C220 59.2984 213.712 65.5181 204.758 65.5181C197.243 65.5181 192.054 62.6468 188.16 55.4046" fill="black"/>
</svg>
