<svg width="300" height="52" viewBox="0 0 300 52" fill="none" xmlns="http://www.w3.org/2000/svg">
<path d="M8.784 7.96603L22.824 0L36.864 7.96603L31.596 10.7665L22.824 5.81273L13.824 10.7665L8.784 7.96603ZM36.648 17.8618L31.596 15.0613L22.824 20.0151L13.824 15.0613L8.772 17.8618V23.6745L17.556 28.6283V38.7476L22.608 41.7599L27.66 38.7476V28.8518L36.444 23.8981V17.8736H36.648V17.8618ZM36.648 33.7938V27.9811L31.596 30.9934V36.5825L36.648 33.7938ZM40.38 35.7236L31.608 40.6773V46.4901L45.66 38.524V22.6038L40.392 25.8278L40.38 35.7236ZM35.328 12.9198L40.38 15.9321V21.7448L45.432 18.7325V12.9198L40.38 9.90753L35.328 12.9198ZM17.556 42.8306V48.6434L22.608 51.6556L27.66 48.6434V42.8306L22.608 45.8429L17.556 42.8306ZM8.772 33.7938L13.824 36.5943V30.7816L8.772 27.7693V33.7938ZM17.556 12.9198L22.608 15.9321L27.876 12.9198L22.824 9.90753L17.556 12.9198ZM5.052 15.9321L10.32 12.9198L5.052 9.90753L0 12.9198V18.7325L5.052 21.7448V15.9321ZM5.052 25.8278L0 22.8155V38.7358L14.052 46.7019V40.8891L5.268 35.9354V25.816L5.052 25.8278Z" fill="#F0B90B"/>
<path d="M86.0267 32.4995C86.0267 28.6283 83.8307 26.6868 80.5427 25.3925C82.7387 24.3217 84.4907 22.3802 84.4907 19.1561C84.4907 14.6378 80.7587 11.6255 74.8307 11.6255H61.2227V40.4656H75.2627C81.6347 40.242 86.0267 37.6651 86.0267 32.4995ZM77.9027 20.2269C77.9027 22.3802 76.1507 23.2392 73.2947 23.2392H67.3667V17.0029H73.7267C76.5947 17.0029 77.9027 18.0854 77.9027 20.2269ZM79.6667 31.6406C79.6667 33.7939 77.9147 34.8646 75.0587 34.8646H67.3787V28.6283H74.8427C78.1307 28.4047 79.6667 29.6991 79.6667 31.6406Z" fill="#F0B90B"/>
<path d="M117.85 40.242V11.6255H111.478V29.2755L97.6543 11.6255H91.7383V40.4656H98.0983V22.1684L112.366 40.4656H117.85V40.242Z" fill="#F0B90B"/>
<path d="M150.109 32.4995C150.109 28.6283 147.913 26.6868 144.625 25.3925C146.821 24.3217 148.573 22.3802 148.573 19.1561C148.573 14.6378 144.841 11.6255 138.913 11.6255H125.305V40.4656H139.345C145.717 40.242 150.109 37.6651 150.109 32.4995ZM142.213 20.2269C142.213 22.3802 140.461 23.2392 137.605 23.2392H131.677V17.0029H138.037C140.677 17.0029 142.213 18.0854 142.213 20.2269ZM143.749 31.6406C143.749 33.7939 141.997 34.8646 139.141 34.8646H131.461V28.6283H138.925C142.213 28.4047 143.749 29.6991 143.749 31.6406Z" fill="#F0B90B"/>
<path d="M188.952 35.2999L185.664 32.0759C183.252 34.441 180.84 35.7353 177.324 35.7353C171.612 35.7353 167.664 31.2169 167.664 25.4042C167.664 19.8032 171.84 15.2966 177.324 15.2966C180.612 15.2966 183.252 16.8027 185.448 18.956L188.736 15.0848C185.88 12.5079 182.592 10.5664 177.324 10.5664C168.54 10.5664 162.18 17.2381 162.18 25.4159C162.18 33.8056 168.54 40.2655 177.108 40.2655C182.592 40.2419 185.88 38.3122 188.952 35.2999Z" fill="#F0B90B"/>
<path d="M213.971 27.7695V39.8186H219.023V10.9785H213.971V23.0276H199.931V10.9785H194.879V39.8186H199.931V27.7695H213.971Z" fill="#F0B90B"/>
<path d="M242.28 10.9785H237.456L224.508 40.0304H229.776L232.848 33.1469H246.672L249.744 40.0304H255.228L242.28 10.9785ZM244.92 28.4049H234.828L239.88 17.003L244.92 28.4049Z" fill="#F0B90B"/>
<path d="M260.941 10.9785V39.8186H265.981V10.9785H260.941Z" fill="#F0B90B"/>
<path d="M294.732 30.9936L278.928 11.1903H274.32V40.0304H279.372V19.3681L295.608 39.8186H300V10.9785H294.948V30.9936H294.732Z" fill="#F0B90B"/>
</svg>
