<svg width="245" height="82" viewBox="0 0 245 82" fill="none" xmlns="http://www.w3.org/2000/svg">
<path d="M89.3046 44.3591C90.2174 47.2896 90.5484 50.3338 90.2908 53.4046C90.0332 56.4751 89.1994 59.4216 87.8121 62.1591C86.3757 64.9951 84.405 67.4822 81.9598 69.5509C79.5126 71.6197 76.7328 73.147 73.6974 74.0913C71.4081 74.8042 69.0503 75.1615 66.6629 75.1615C65.9937 75.1615 65.323 75.1336 64.6503 75.0774C61.5798 74.8198 58.6334 73.986 55.8939 72.5987C53.0579 71.1623 50.5708 69.1917 48.502 66.7464C44.6799 62.2257 42.6709 56.4855 42.8443 50.5826C43.0178 44.6534 45.3773 39.1201 49.4865 35.0017C51.6989 32.7858 58.0205 27.4643 61.8881 24.2467C61.8618 24.0433 61.8478 23.8368 61.8478 23.625C61.8478 20.982 63.99 18.8395 66.6334 18.8395C69.2764 18.8395 71.4189 20.9816 71.4189 23.625C71.4189 26.2684 69.2768 28.4106 66.6334 28.4106C66.1114 28.4106 65.6069 28.3264 65.1376 28.1725C61.3314 31.3395 55.1462 36.5453 53.0934 38.6017C46.5018 45.2053 46.1936 56.1234 52.3943 63.459C56.0761 67.8151 61.347 70.061 66.6489 70.061C70.9017 70.061 75.1757 68.6174 78.6704 65.6642C86.5229 59.0272 87.511 47.2406 80.874 39.3881C79.7969 38.1129 78.56 36.9919 77.199 36.0548C76.4932 35.5696 76.0481 34.8023 75.9748 33.9494C75.9014 33.098 76.2096 32.2662 76.8209 31.6689C78.9125 29.6248 80.0649 26.8869 80.0649 23.9636V23.5066C80.0649 17.0394 74.8028 11.7778 68.3361 11.7778H58.4009C55.8855 11.7778 53.8398 13.8238 53.8398 16.3388V24.0724L48.746 28.4548V16.3348C48.746 15.0317 49.0016 13.7668 49.5061 12.5757C49.993 11.4249 50.6884 10.3933 51.5749 9.5068C52.4613 8.62035 53.4929 7.92491 54.6437 7.43802C55.8364 6.93359 57.1013 6.67798 58.4029 6.67798H68.3381C70.6082 6.67798 72.8118 7.123 74.8873 8.00028C76.8911 8.84805 78.69 10.0603 80.2352 11.6051C81.78 13.1499 82.9922 14.9491 83.84 16.9529C84.7177 19.0285 85.1623 21.232 85.1623 23.5022V23.9592C85.1623 26.1328 84.7296 28.2383 83.8783 30.2213C83.395 31.3459 82.7888 32.4002 82.0687 33.376C83.0373 34.2062 83.9393 35.1154 84.7679 36.0943C86.8331 38.5439 88.3608 41.3237 89.3046 44.3591ZM62.7921 42.329C64.0095 41.8142 65.3023 41.553 66.6334 41.553C67.9644 41.553 69.2572 41.8142 70.4746 42.329C71.6498 42.8266 72.7045 43.5376 73.6101 44.4432C74.5157 45.3488 75.2267 46.4032 75.7243 47.5787C76.2392 48.7961 76.5003 50.0889 76.5003 51.42C76.5003 52.7511 76.2396 54.0438 75.7243 55.2613C75.2267 56.4364 74.5157 57.4911 73.6101 58.3967C72.7045 59.3023 71.6502 60.0133 70.4746 60.511C69.2572 61.0258 67.9644 61.287 66.6334 61.287C65.3023 61.287 64.0095 61.0258 62.7921 60.511C61.6169 60.0133 60.5622 59.3023 59.6566 58.3967C58.751 57.4911 58.04 56.4368 57.5424 55.2613C57.0276 54.0438 56.7664 52.7511 56.7664 51.42C56.7664 50.0889 57.0276 48.7961 57.5424 47.5787C58.04 46.4035 58.751 45.3488 59.6566 44.4432C60.5622 43.5376 61.6169 42.8266 62.7921 42.329ZM71.4085 51.4216C71.4085 48.7889 69.2664 46.6484 66.6353 46.6484C64.0027 46.6484 61.8622 48.7905 61.8622 51.4216C61.8622 54.0542 64.0043 56.1948 66.6353 56.1948C69.2664 56.1948 71.4085 54.0526 71.4085 51.4216Z" fill="#F16127"/>
<path d="M154.637 58.6464C154.637 52.6458 154.637 46.6655 154.637 40.6677C156.523 40.6677 158.401 40.6677 160.289 40.6677C160.289 46.6627 160.289 52.6494 160.289 58.6464C158.403 58.6464 156.53 58.6464 154.637 58.6464Z" fill="white"/>
<path d="M201.839 48.4547C201.839 48.3801 201.839 48.3048 201.839 48.2254C197.653 48.2254 193.49 48.2254 189.332 48.2254C189.332 49.7084 189.332 51.1723 189.332 52.6481C191.613 52.6481 193.877 52.6481 196.176 52.6481C196.176 52.8718 196.168 53.0724 196.18 53.271C196.186 53.3894 196.145 53.4508 196.033 53.4783C195.597 53.5836 195.166 53.7247 194.725 53.7933C193.523 53.9796 192.311 53.9895 191.099 53.9166C190.233 53.8639 189.379 53.7367 188.563 53.4209C187.396 52.9699 186.601 52.1744 186.439 50.9091C186.343 50.1598 186.383 49.3902 186.402 48.6306C186.415 48.1269 186.583 47.652 186.842 47.2169C187.387 46.3034 188.25 45.8552 189.24 45.6107C190.404 45.3232 191.583 45.3029 192.769 45.4389C194.343 45.6187 195.775 46.1598 197.035 47.13C197.336 47.3609 197.616 47.6177 197.919 47.8729C199.099 46.4102 200.281 44.9464 201.47 43.4745C201.366 43.3904 201.275 43.3166 201.184 43.2429C199.028 41.4867 196.559 40.5026 193.794 40.2529C192.3 40.1178 190.806 40.1054 189.313 40.2537C187.893 40.3945 186.51 40.688 185.207 41.2897C183.406 42.1207 182.095 43.4239 181.366 45.2861C181.219 45.663 181.1 46.045 181.006 46.4314C181.006 44.5113 181.006 42.5917 181.006 40.6716C179.162 40.6716 177.332 40.6716 175.474 40.6716C175.474 43.9714 175.474 47.2536 175.474 50.5781C175.396 50.4876 175.35 50.4365 175.306 50.3843C172.6 47.2026 169.894 44.0216 167.193 40.8367C167.079 40.7023 166.966 40.6489 166.789 40.6505C165.903 40.6601 165.016 40.6537 164.13 40.6553C163.202 40.6569 162.274 40.6609 161.346 40.6633C161.346 46.6623 161.346 52.6616 161.346 58.6598C163.192 58.6598 165.037 58.6598 166.904 58.6598C166.904 55.3298 166.904 52.03 166.904 48.674C167.007 48.7924 167.074 48.8674 167.139 48.9444C169.831 52.1277 172.524 55.311 175.214 58.4967C175.31 58.6108 175.405 58.6654 175.562 58.665C177.301 58.6586 179.039 58.661 180.778 58.661C180.852 58.661 180.927 58.661 181.007 58.661C181.007 56.735 181.007 54.8122 181.007 52.8901C181.602 55.3258 183.034 57.0736 185.361 58.0948C186.813 58.7316 188.347 59.0123 189.915 59.1128C192.192 59.2588 194.454 59.1268 196.692 58.661C198.436 58.2982 200.106 57.7303 201.647 56.8176C201.789 56.7334 201.844 56.6449 201.844 56.4766C201.838 53.8021 201.839 51.1284 201.839 48.4547Z" fill="white"/>
<path d="M149.988 53.0206C150.107 52.968 150.208 52.9241 150.308 52.8782C151.844 52.1792 152.889 51.0387 153.36 49.4114C153.833 47.7753 153.796 46.1252 153.355 44.4907C152.913 42.8553 151.866 41.7619 150.267 41.1949C149.224 40.8248 148.143 40.6709 147.045 40.6661C142.973 40.6498 138.9 40.6542 134.828 40.6522C134.773 40.6522 134.718 40.6577 134.65 40.6617C134.65 41.9836 134.65 43.3043 134.65 44.6242C134.358 44.0867 133.996 43.5827 133.558 43.1181C132.426 41.917 131.009 41.2128 129.445 40.7722C127.82 40.3144 126.154 40.1705 124.469 40.125C123.497 40.2012 122.52 40.2474 121.553 40.3615C120.157 40.5266 118.808 40.8838 117.549 41.5263C115.909 42.3621 114.694 43.5998 113.986 45.3137C113.602 46.2436 113.383 47.2138 113.326 48.2143C113.28 49.0011 113.252 49.7882 113.285 50.5722C112.765 49.9294 112.042 49.4429 111.154 49.1701C111.024 49.1303 110.891 49.098 110.756 49.0617C110.767 49.0405 110.768 49.0326 110.773 49.0294C110.826 48.9979 110.88 48.9664 110.934 48.9369C111.629 48.5537 112.148 48.0054 112.484 47.2844C112.854 46.4897 112.936 45.6507 112.853 44.7889C112.704 43.2417 111.986 42.0674 110.573 41.3596C109.594 40.8695 108.539 40.6733 107.458 40.6693C102.977 40.6514 98.4949 40.6573 94.0132 40.6554C93.9598 40.6554 93.9064 40.6649 93.8438 40.6701C93.8438 46.6635 93.8438 52.6462 93.8438 58.6603C93.9223 58.6603 93.9837 58.6603 94.0439 58.6603C98.741 58.6603 103.437 58.6603 108.134 58.6595C108.954 58.6595 109.767 58.5833 110.56 58.3672C111.777 58.035 112.801 57.4221 113.475 56.3196C113.845 55.7162 114.037 55.0643 114.135 54.384C114.865 55.9356 116.062 57.1175 117.732 57.9218C119.198 58.6288 120.765 58.9506 122.374 59.0954C123.888 59.2313 125.402 59.2226 126.916 59.0599C128.313 58.9091 129.675 58.616 130.964 58.041C132.619 57.3025 133.865 56.2063 134.651 54.7285C134.651 56.0348 134.651 57.3408 134.651 58.6467C136.486 58.6467 138.305 58.6467 140.147 58.6467C140.147 56.9652 140.147 55.2931 140.147 53.6004C140.244 53.6004 140.319 53.6004 140.393 53.6004C141.502 53.6004 142.61 53.6044 143.718 53.5964C143.89 53.5948 143.994 53.6546 144.097 53.7858C145.342 55.3613 146.594 56.9321 147.84 58.5064C147.924 58.6117 148.008 58.6611 148.15 58.6611C150.242 58.6563 152.333 58.6579 154.425 58.6571C154.482 58.6571 154.541 58.6491 154.628 58.6432C153.07 56.755 151.534 54.8936 149.988 53.0206ZM99.3491 45.7324C99.4276 45.7324 99.5006 45.7324 99.5736 45.7324C101.686 45.7324 103.799 45.7292 105.912 45.7356C106.152 45.7364 106.394 45.7663 106.63 45.8142C106.969 45.8831 107.175 46.1064 107.227 46.4502C107.283 46.8123 107.187 47.1233 106.881 47.3486C106.63 47.5332 106.337 47.5922 106.037 47.593C103.834 47.5978 101.631 47.5962 99.428 47.5954C99.4085 47.5954 99.3893 47.5867 99.3487 47.5783C99.3491 46.965 99.3491 46.3632 99.3491 45.7324ZM108.007 53.4094C107.777 53.4919 107.523 53.5406 107.278 53.5422C105.381 53.5533 103.483 53.5502 101.586 53.551C100.921 53.551 100.256 53.551 99.5907 53.551C99.5161 53.551 99.4416 53.551 99.3487 53.551C99.3487 52.8471 99.3487 52.1764 99.3495 51.4742C99.428 51.4742 99.501 51.4742 99.574 51.4742C102.067 51.4742 104.561 51.4718 107.054 51.4782C107.328 51.479 107.609 51.5049 107.877 51.5615C108.313 51.6532 108.534 51.9292 108.566 52.3579C108.606 52.879 108.421 53.2599 108.007 53.4094ZM129.933 50.9036C129.739 52.1784 128.929 52.9739 127.765 53.4421C126.706 53.868 125.592 53.9605 124.467 53.9776C123.347 53.9597 122.245 53.8552 121.188 53.4453C119.767 52.8938 118.962 51.7677 118.951 50.2464C118.947 49.6447 118.93 49.0354 119.02 48.4448C119.21 47.1875 119.998 46.3892 121.148 45.9226C122.212 45.4908 123.333 45.3847 124.466 45.3839C125.607 45.3831 126.731 45.4979 127.806 45.9194C129.193 46.4637 129.991 47.5898 130.002 49.0816C130.006 49.6893 130.025 50.307 129.933 50.9036ZM148.026 47.3394C147.943 48.0692 147.49 48.4767 146.671 48.5947C146.411 48.6318 146.147 48.649 145.884 48.6498C144.034 48.6545 142.186 48.6521 140.336 48.6521C140.282 48.6521 140.227 48.6474 140.152 48.6434C140.152 47.668 140.152 46.7146 140.152 45.7304C140.23 45.7304 140.303 45.7304 140.376 45.7304C142.191 45.7304 144.005 45.7264 145.821 45.7344C146.193 45.736 146.569 45.7579 146.937 45.8138C147.784 45.9414 148.13 46.4259 148.026 47.3394Z" fill="white"/>
<path d="M174.656 62.2289C173.927 62.8478 173.206 63.4603 172.496 64.0628C172.244 63.8467 172.008 63.6286 171.756 63.432C171.107 62.9276 170.357 62.719 169.544 62.7086C168.997 62.7023 168.456 62.7401 167.936 62.9355C167.251 63.1939 166.85 63.6832 166.796 64.4162C166.768 64.797 166.766 65.189 166.818 65.5662C166.917 66.2871 167.382 66.7146 168.052 66.9359C168.581 67.1102 169.127 67.1393 169.677 67.1206C170.113 67.1058 170.543 67.0508 170.958 66.9084C171.578 66.6955 172.068 66.3099 172.46 65.7915C172.499 65.7404 172.537 65.6894 172.578 65.6344C173.341 66.2054 174.098 66.7724 174.859 67.3419C174.521 67.832 174.118 68.2451 173.646 68.5916C172.877 69.1562 172.012 69.4948 171.077 69.6583C169.753 69.89 168.432 69.8625 167.124 69.5466C166.524 69.4023 165.963 69.1634 165.461 68.7974C164.696 68.2399 164.241 67.4802 164.022 66.5691C163.828 65.7624 163.842 64.9441 163.89 64.1255C163.923 63.56 164.048 63.0133 164.28 62.4941C164.67 61.6224 165.319 61.0103 166.179 60.6139C166.86 60.2997 167.582 60.1482 168.322 60.0776C169.072 60.0054 169.823 60.007 170.573 60.0784C171.599 60.1765 172.577 60.4265 173.441 61.0179C173.919 61.3437 174.316 61.7476 174.656 62.2289Z" fill="white"/>
<path d="M193.451 69.5413C193.451 66.4545 193.451 63.3788 193.451 60.2952C194.42 60.2952 195.383 60.2952 196.359 60.2952C196.359 62.4812 196.359 64.666 196.359 66.866C198.188 66.866 200.006 66.866 201.829 66.866C201.829 67.766 201.829 68.6504 201.829 69.5413C199.036 69.5413 196.248 69.5413 193.451 69.5413Z" fill="white"/>
<path d="M126.931 60.0161C127.798 60.0396 128.654 60.1134 129.49 60.3491C130.294 60.576 131.023 60.9381 131.605 61.5553C132.139 62.1216 132.456 62.7995 132.584 63.5591C132.754 64.5684 132.766 65.5816 132.522 66.5813C132.216 67.8351 131.443 68.706 130.271 69.2291C129.608 69.5254 128.908 69.6753 128.189 69.7531C127.411 69.8372 126.632 69.8412 125.853 69.771C125.026 69.6973 124.22 69.5314 123.466 69.1677C122.314 68.6122 121.599 67.7074 121.315 66.4613C121.143 65.7065 121.156 64.9408 121.2 64.1756C121.23 63.6612 121.342 63.1623 121.54 62.6842C121.905 61.803 122.529 61.1669 123.372 60.7363C124.02 60.4065 124.713 60.2219 125.43 60.1369C125.929 60.0791 126.43 60.0556 126.931 60.0161ZM126.929 67.14C127.508 67.1312 128.081 67.0834 128.625 66.8653C129.223 66.6248 129.64 66.2157 129.74 65.5597C129.787 65.2527 129.777 64.9352 129.775 64.6226C129.769 63.8554 129.359 63.2764 128.645 62.9969C128.092 62.7799 127.515 62.7213 126.928 62.7213C126.346 62.7221 125.769 62.7763 125.222 62.9985C124.631 63.2389 124.226 63.6488 124.128 64.2952C124.083 64.5991 124.091 64.9125 124.093 65.2212C124.098 66.0035 124.512 66.5829 125.243 66.8665C125.787 67.0774 126.354 67.1308 126.929 67.14Z" fill="white"/>
<path d="M155.212 60.0161C156.079 60.0396 156.935 60.1134 157.771 60.3491C158.575 60.576 159.304 60.9381 159.886 61.5553C160.42 62.1216 160.737 62.7995 160.865 63.5591C161.036 64.5684 161.048 65.5816 160.803 66.5813C160.497 67.8351 159.724 68.706 158.552 69.2291C157.889 69.5254 157.189 69.6753 156.471 69.7531C155.692 69.8372 154.913 69.8412 154.135 69.771C153.308 69.6973 152.502 69.5314 151.748 69.1677C150.595 68.6122 149.88 67.7074 149.596 66.4613C149.424 65.7065 149.438 64.9408 149.481 64.1756C149.511 63.6612 149.624 63.1623 149.822 62.6842C150.186 61.803 150.81 61.1669 151.653 60.7363C152.301 60.4065 152.994 60.2219 153.711 60.1369C154.21 60.0791 154.712 60.0556 155.212 60.0161ZM155.21 67.14C155.789 67.1312 156.362 67.0834 156.906 66.8653C157.504 66.6248 157.921 66.2157 158.021 65.5597C158.068 65.2527 158.058 64.9352 158.056 64.6226C158.05 63.8554 157.64 63.2764 156.927 62.9969C156.374 62.7799 155.796 62.7213 155.21 62.7213C154.627 62.7221 154.05 62.7763 153.504 62.9985C152.912 63.2389 152.507 63.6488 152.41 64.2952C152.364 64.5991 152.372 64.9125 152.374 65.2212C152.38 66.0035 152.794 66.5829 153.524 66.8665C154.068 67.0774 154.635 67.1308 155.21 67.14Z" fill="white"/>
<path d="M183.491 60.0161C184.359 60.0396 185.214 60.1134 186.05 60.3491C186.854 60.576 187.583 60.9381 188.165 61.5553C188.699 62.1216 189.017 62.7995 189.145 63.5591C189.315 64.5684 189.327 65.5816 189.082 66.5813C188.776 67.8351 188.003 68.706 186.831 69.2291C186.169 69.5254 185.469 69.6753 184.75 69.7531C183.971 69.8372 183.192 69.8412 182.414 69.771C181.587 69.6973 180.781 69.5314 180.027 69.1677C178.874 68.6122 178.159 67.7074 177.876 66.4613C177.704 65.7065 177.717 64.9408 177.761 64.1756C177.791 63.6612 177.903 63.1623 178.101 62.6842C178.465 61.803 179.09 61.1669 179.932 60.7363C180.58 60.4065 181.274 60.2219 181.991 60.1369C182.489 60.0791 182.991 60.0556 183.491 60.0161ZM183.49 67.14C184.069 67.1312 184.641 67.0834 185.185 66.8653C185.784 66.6248 186.2 66.2157 186.301 65.5597C186.348 65.2527 186.338 64.9352 186.335 64.6226C186.33 63.8554 185.92 63.2764 185.206 62.9969C184.653 62.7799 184.075 62.7213 183.489 62.7213C182.906 62.7221 182.33 62.7763 181.783 62.9985C181.192 63.2389 180.786 63.6488 180.689 64.2952C180.643 64.5991 180.652 64.9125 180.653 65.2212C180.659 66.0035 181.073 66.5829 181.803 66.8665C182.348 67.0774 182.915 67.1308 183.49 67.14Z" fill="white"/>
<path d="M96.6585 66.9509C96.6585 67.8218 96.6585 68.6788 96.6585 69.5437C95.713 69.5437 94.7751 69.5437 93.8301 69.5437C93.8301 66.4625 93.8301 63.3836 93.8301 60.2976C93.8672 60.2952 93.8975 60.292 93.929 60.292C95.9595 60.2928 97.9896 60.2912 100.02 60.2984C100.595 60.3 101.163 60.3753 101.71 60.5663C102.546 60.8578 103.091 61.4281 103.318 62.2818C103.535 63.0941 103.557 63.9164 103.336 64.7314C103.064 65.7367 102.397 66.3747 101.423 66.7045C100.853 66.8971 100.264 66.9525 99.666 66.9517C98.7078 66.9501 97.7495 66.9509 96.7913 66.9509C96.7498 66.9509 96.7083 66.9509 96.6585 66.9509ZM96.6609 64.4012C96.6988 64.4036 96.7267 64.406 96.755 64.406C97.6809 64.406 98.6061 64.4068 99.5324 64.4044C99.6564 64.4044 99.782 64.3965 99.904 64.3761C100.206 64.3267 100.46 64.2003 100.543 63.8773C100.575 63.7564 100.581 63.6237 100.573 63.4972C100.554 63.199 100.418 63.0291 100.124 62.9669C99.9172 62.923 99.7011 62.9071 99.4893 62.9055C98.5853 62.8991 97.6805 62.9031 96.7765 62.9031C96.7387 62.9031 96.7012 62.9031 96.6609 62.9031C96.6609 63.4083 96.6609 63.8992 96.6609 64.4012Z" fill="white"/>
<path d="M107.664 60.2929C107.699 60.2913 107.727 60.2881 107.755 60.2881C109.849 60.2897 111.944 60.2873 114.037 60.2953C114.601 60.2977 115.158 60.377 115.694 60.5672C116.516 60.8587 117.054 61.421 117.281 62.2616C117.508 63.1022 117.527 63.9511 117.284 64.7921C117.042 65.6287 116.505 66.2153 115.715 66.575C115.663 66.5985 115.611 66.6212 115.55 66.648C116.344 67.611 117.135 68.5684 117.936 69.539C117.89 69.5422 117.86 69.5462 117.831 69.5462C116.756 69.5462 115.68 69.5454 114.605 69.5486C114.532 69.5486 114.488 69.5234 114.445 69.4692C113.805 68.6593 113.161 67.8518 112.521 67.0423C112.468 66.9749 112.414 66.9442 112.326 66.945C111.757 66.949 111.187 66.9474 110.617 66.9474C110.578 66.9474 110.54 66.9474 110.49 66.9474C110.49 67.8175 110.49 68.6777 110.49 69.5426C109.543 69.5426 108.608 69.5426 107.664 69.5426C107.664 66.4621 107.664 63.3833 107.664 60.2929ZM110.493 64.3965C110.532 64.3981 110.56 64.4013 110.587 64.4013C111.538 64.4013 112.49 64.4021 113.44 64.3997C113.575 64.3997 113.711 64.3902 113.844 64.3714C114.266 64.3108 114.499 64.1011 114.541 63.7258C114.595 63.2561 114.416 63.0073 113.981 62.9411C113.792 62.9127 113.599 62.9012 113.407 62.9004C112.474 62.8964 111.541 62.8988 110.608 62.8988C110.57 62.8988 110.532 62.8988 110.493 62.8988C110.493 63.4048 110.493 63.8949 110.493 64.3965Z" fill="white"/>
<path d="M136.084 60.296C136.13 60.2944 136.176 60.292 136.223 60.292C139.461 60.292 142.699 60.292 145.937 60.292C145.982 60.292 146.028 60.292 146.08 60.292C146.08 61.1637 146.08 62.027 146.08 62.9003C144.904 62.9003 143.731 62.9003 142.545 62.9003C142.545 65.1198 142.545 67.3294 142.545 69.5449C141.57 69.5449 140.606 69.5449 139.635 69.5449C139.635 67.3337 139.635 65.127 139.635 62.9035C138.446 62.9035 137.266 62.9035 136.085 62.9035C136.084 62.0342 136.084 61.1653 136.084 60.296Z" fill="white"/>
<path d="M89.2991 44.63C90.2108 47.5811 90.542 50.645 90.2846 53.7373C90.0272 56.8295 89.1932 59.7955 87.8061 62.5522C86.3694 65.4081 84.401 67.9116 81.9547 69.9938C79.5083 72.076 76.7295 73.614 73.6938 74.5646C71.405 75.2816 69.0478 75.6422 66.6618 75.6422C65.9928 75.6422 65.3223 75.6138 64.6499 75.5571C61.5794 75.2978 58.6343 74.4579 55.897 73.061C53.0611 71.6142 50.5752 69.6319 48.5077 67.1682C44.6883 62.617 42.6797 56.8376 42.852 50.8948C43.0257 44.9244 45.3842 39.3536 49.4925 35.2088C51.7042 32.9774 58.0242 27.62 61.8898 24.3806C61.8637 24.176 61.8496 23.9674 61.8496 23.7554C61.8496 21.0946 63.9916 18.9375 66.6337 18.9375C69.2758 18.9375 71.4178 21.0946 71.4178 23.7554C71.4178 26.4162 69.2758 28.5733 66.6337 28.5733C66.1114 28.5733 65.6086 28.489 65.1373 28.333C61.334 31.5204 55.1501 36.761 53.0973 38.8317C46.5071 45.48 46.2001 56.473 52.3981 63.8579C56.0793 68.2444 61.3481 70.5035 66.6484 70.5035C70.9009 70.5035 75.1728 69.0506 78.667 66.0765C86.5169 59.3944 87.5051 47.5271 80.8699 39.6217C79.7926 38.3382 78.557 37.2093 77.1961 36.2661C76.4915 35.7773 76.045 35.0049 75.9719 34.1461C75.8988 33.2887 76.2072 32.4515 76.818 31.8499C78.909 29.7913 80.0601 27.036 80.0601 24.0923V23.6318C80.0601 17.1206 74.8 11.8226 68.3338 11.8226H58.4016C55.8869 11.8226 53.8415 13.8825 53.8415 16.4151V24.2017L48.7483 28.6139V16.4157C48.7483 15.1046 49.0038 13.8312 49.5079 12.6308C49.994 11.4729 50.6899 10.4338 51.5755 9.54124C52.4611 8.64936 53.4935 7.94854 54.6433 7.45905C55.8353 6.95133 57.0997 6.69409 58.4016 6.69409H68.3345C70.6039 6.69409 72.8069 7.1424 74.8818 8.02618C76.885 8.87959 78.6831 10.1003 80.227 11.6552C81.771 13.2101 82.9831 15.0208 83.8305 17.0382C84.7081 19.1279 85.1532 21.3464 85.1532 23.6318V24.0923C85.1532 26.2798 84.7215 28.4012 83.8694 30.397C83.386 31.5292 82.7813 32.5912 82.0606 33.5736C83.0287 34.4088 83.9311 35.3243 84.7597 36.3114C86.8279 38.7744 88.3545 41.5736 89.2991 44.63ZM62.7935 42.5863C64.0117 42.0678 65.3036 41.8045 66.6343 41.8045C67.9651 41.8045 69.257 42.0678 70.4752 42.5863C71.6504 43.0866 72.705 43.8029 73.61 44.7144C74.5151 45.6259 75.2264 46.6879 75.7232 47.8715C76.238 49.0982 76.4995 50.3993 76.4995 51.7395C76.4995 53.0797 76.238 54.3807 75.7232 55.6075C75.2264 56.791 74.5151 57.853 73.61 58.7645C72.705 59.676 71.6504 60.3923 70.4752 60.8926C69.257 61.4111 67.9651 61.6744 66.6343 61.6744C65.3036 61.6744 64.0117 61.4111 62.7935 60.8926C61.6183 60.3923 60.5637 59.676 59.6587 58.7645C58.7536 57.853 58.0423 56.791 57.5455 55.6075C57.0306 54.3807 56.7692 53.0797 56.7692 51.7395C56.7692 50.3993 57.0306 49.0982 57.5455 47.8715C58.0423 46.6879 58.7536 45.6259 59.6587 44.7144C60.5637 43.8029 61.6183 43.0873 62.7935 42.5863ZM71.4064 51.7401C71.4064 49.0901 69.2657 46.9343 66.6343 46.9343C64.003 46.9343 61.8623 49.0901 61.8623 51.7401C61.8623 54.3901 64.003 56.5459 66.6343 56.5459C69.2657 56.5459 71.4064 54.3901 71.4064 51.7401Z" fill="#FC6020"/>
<path d="M93.7285 58.5478C93.7285 52.5828 93.7285 46.649 93.7285 40.7043C93.7908 40.6988 93.8438 40.6895 93.8968 40.6895C98.3419 40.6918 102.788 40.6856 107.233 40.7035C108.304 40.7074 109.351 40.9021 110.322 41.3882C111.724 42.0901 112.435 43.2548 112.583 44.7894C112.666 45.644 112.584 46.476 112.217 47.2644C111.884 47.9795 111.369 48.5233 110.68 48.9035C110.626 48.9331 110.573 48.9642 110.52 48.9954C110.516 48.9985 110.514 49.0063 110.504 49.0273C110.637 49.0632 110.77 49.0951 110.898 49.1348C112.907 49.7518 114.06 51.4688 113.925 53.6158C113.866 54.5397 113.691 55.4262 113.201 56.2263C112.532 57.32 111.516 57.9277 110.309 58.2572C109.522 58.4714 108.716 58.547 107.903 58.547C103.244 58.5478 98.5865 58.5478 93.9279 58.5478C93.868 58.5478 93.8064 58.5478 93.7285 58.5478ZM99.1895 53.4802C99.2814 53.4802 99.3554 53.4802 99.4294 53.4802C100.089 53.4802 100.748 53.4802 101.408 53.4802C103.29 53.4794 105.172 53.4826 107.054 53.4717C107.297 53.4701 107.549 53.4218 107.777 53.34C108.188 53.192 108.371 52.8142 108.332 52.2969C108.3 51.8715 108.081 51.5981 107.649 51.507C107.382 51.4509 107.104 51.4252 106.832 51.4244C104.359 51.4181 101.886 51.4205 99.413 51.4205C99.3406 51.4205 99.2681 51.4205 99.1902 51.4205C99.1895 52.1169 99.1895 52.7822 99.1895 53.4802ZM99.1895 47.5565C99.23 47.5651 99.2487 47.5737 99.2681 47.5737C101.453 47.5745 103.638 47.576 105.823 47.5713C106.121 47.5706 106.412 47.5121 106.66 47.3291C106.963 47.1055 107.059 46.797 107.004 46.4379C106.952 46.0966 106.748 45.8754 106.411 45.8069C106.177 45.7593 105.937 45.7297 105.699 45.7289C103.603 45.7227 101.508 45.7258 99.4123 45.7258C99.3398 45.7258 99.2674 45.7258 99.1895 45.7258C99.1895 46.3514 99.1895 46.9481 99.1895 47.5565Z" fill="black"/>
<path d="M195.225 52.5852C192.945 52.5852 190.699 52.5852 188.437 52.5852C188.437 51.1214 188.437 49.6693 188.437 48.1985C192.561 48.1985 196.69 48.1985 200.842 48.1985C200.842 48.2772 200.842 48.352 200.842 48.426C200.842 51.0778 200.841 53.7296 200.846 56.3814C200.846 56.5481 200.791 56.6361 200.651 56.7195C199.121 57.6247 197.466 58.1879 195.736 58.5478C193.516 59.0098 191.273 59.1407 189.014 58.9958C187.459 58.896 185.937 58.6179 184.498 57.9862C182.131 56.9477 180.698 55.1521 180.135 52.6397C179.864 51.4283 179.86 50.2014 179.877 48.9705C179.894 47.7046 180.072 46.4691 180.536 45.2826C181.259 43.4356 182.559 42.1432 184.346 41.319C185.638 40.7222 187.01 40.4309 188.418 40.2914C189.899 40.1442 191.381 40.1567 192.863 40.2907C195.605 40.5384 198.054 41.5145 200.192 43.2564C200.282 43.3296 200.373 43.4029 200.475 43.4862C199.297 44.9461 198.124 46.3982 196.953 47.8487C196.654 47.5956 196.375 47.3408 196.077 47.1118C194.828 46.1497 193.407 45.6129 191.845 45.4345C190.67 45.2998 189.5 45.32 188.346 45.6052C187.364 45.8474 186.508 46.2923 185.967 47.1983C185.71 47.6298 185.543 48.1011 185.531 48.6005C185.512 49.3538 185.472 50.1172 185.567 50.8604C185.728 52.1154 186.517 52.9046 187.674 53.3517C188.483 53.6649 189.331 53.7911 190.189 53.8433C191.391 53.9158 192.594 53.9056 193.786 53.721C194.224 53.6532 194.651 53.513 195.083 53.4086C195.194 53.3814 195.235 53.3206 195.229 53.203C195.217 53.0059 195.225 52.8072 195.225 52.5852Z" fill="black"/>
<path d="M154.025 58.5347C154.025 52.583 154.025 46.6515 154.025 40.7029C155.897 40.7029 157.758 40.7029 159.631 40.7029C159.631 46.6492 159.631 52.5869 159.631 58.5347C157.762 58.5347 155.903 58.5347 154.025 58.5347Z" fill="black"/>
<path d="M160.68 40.6973C161.6 40.695 162.521 40.6911 163.441 40.6895C164.321 40.688 165.2 40.6942 166.079 40.6848C166.254 40.6833 166.367 40.7363 166.48 40.8695C169.159 44.0284 171.843 47.1835 174.526 50.3393C174.57 50.3915 174.616 50.4421 174.694 50.5317C174.694 47.2341 174.694 43.9786 174.694 40.7059C176.536 40.7059 178.352 40.7059 180.18 40.7059C180.18 46.6483 180.18 52.586 180.18 58.5478C180.101 58.5478 180.027 58.5478 179.953 58.5478C178.229 58.5478 176.505 58.5455 174.78 58.5517C174.624 58.5525 174.531 58.498 174.435 58.385C171.767 55.2253 169.096 52.0679 166.426 48.9105C166.361 48.8342 166.295 48.7602 166.193 48.6426C166.193 51.9713 166.193 55.244 166.193 58.547C164.341 58.547 162.51 58.547 160.68 58.547C160.68 52.5977 160.68 46.6475 160.68 40.6973Z" fill="black"/>
<path d="M124.104 40.1638C125.776 40.209 127.427 40.3516 129.04 40.8057C130.591 41.2428 131.996 41.9415 133.119 43.1327C134.148 44.2249 134.761 45.5321 135.008 46.9974C135.337 48.9442 135.359 50.8987 134.888 52.8268C134.297 55.2449 132.806 56.9253 130.546 57.9341C129.267 58.5043 127.916 58.7949 126.531 58.9445C125.029 59.1057 123.527 59.1143 122.025 58.9795C120.43 58.8362 118.876 58.5168 117.421 57.8157C115.198 56.7445 113.819 54.9987 113.272 52.5955C112.94 51.1395 112.966 49.6624 113.051 48.187C113.108 47.1945 113.325 46.2324 113.706 45.31C114.409 43.6102 115.613 42.3825 117.24 41.5536C118.49 40.9164 119.827 40.5619 121.211 40.3983C122.171 40.2853 123.139 40.2394 124.104 40.1638ZM124.101 53.9042C125.217 53.8871 126.322 53.7951 127.372 53.3729C128.526 52.9086 129.33 52.1195 129.523 50.8551C129.613 50.2631 129.594 49.6508 129.591 49.0478C129.58 47.5684 128.789 46.4513 127.412 45.9114C126.346 45.4931 125.232 45.3794 124.1 45.3802C122.976 45.3809 121.864 45.4861 120.809 45.9146C119.669 46.3773 118.887 47.1688 118.698 48.416C118.609 49.0018 118.627 49.6063 118.631 50.2031C118.641 51.712 119.439 52.8292 120.848 53.376C121.898 53.7827 122.991 53.8863 124.101 53.9042Z" fill="black"/>
<path d="M134.203 40.6966C134.27 40.6927 134.325 40.6873 134.379 40.6873C138.418 40.6896 142.458 40.6849 146.497 40.7013C147.585 40.706 148.658 40.8586 149.692 41.2256C151.278 41.788 152.317 42.8724 152.755 44.4943C153.193 46.1155 153.229 47.7522 152.76 49.3749C152.294 50.989 151.257 52.1202 149.734 52.8135C149.634 52.8587 149.534 52.9023 149.417 52.9545C150.95 54.8125 152.474 56.6588 154.018 58.5308C153.931 58.537 153.873 58.5448 153.817 58.5448C151.742 58.5456 149.667 58.544 147.593 58.5487C147.452 58.5487 147.369 58.4996 147.285 58.3952C146.049 56.8341 144.808 55.276 143.573 53.7133C143.47 53.5832 143.368 53.524 143.197 53.5255C142.098 53.5333 140.999 53.5294 139.899 53.5294C139.825 53.5294 139.751 53.5294 139.655 53.5294C139.655 55.2082 139.655 56.8668 139.655 58.5347C137.828 58.5347 136.024 58.5347 134.204 58.5347C134.203 52.5962 134.203 46.6585 134.203 40.6966ZM139.659 48.613C139.733 48.6169 139.788 48.6216 139.842 48.6216C141.676 48.6216 143.51 48.6239 145.345 48.6193C145.605 48.6185 145.867 48.6013 146.125 48.5647C146.937 48.4479 147.387 48.0436 147.469 47.3199C147.572 46.4138 147.229 45.9332 146.389 45.8062C146.024 45.7509 145.651 45.7291 145.282 45.7275C143.481 45.7197 141.682 45.7236 139.881 45.7236C139.809 45.7236 139.737 45.7236 139.659 45.7236C139.659 46.699 139.659 47.6455 139.659 48.613Z" fill="black"/>
<path d="M173.882 62.0879C173.159 62.7018 172.444 63.3094 171.74 63.907C171.489 63.6927 171.256 63.4762 171.006 63.2814C170.363 62.7813 169.619 62.574 168.812 62.5639C168.269 62.5577 167.733 62.5951 167.218 62.7891C166.538 63.0454 166.14 63.5307 166.086 64.2575C166.058 64.6353 166.057 65.0241 166.108 65.398C166.206 66.1131 166.668 66.5369 167.333 66.7566C167.857 66.9296 168.399 66.9584 168.945 66.9397C169.377 66.9249 169.803 66.8704 170.214 66.7294C170.829 66.5182 171.315 66.1357 171.705 65.6216C171.743 65.5709 171.78 65.5203 171.822 65.4658C172.578 66.0321 173.329 66.5946 174.084 67.1594C173.749 67.6455 173.349 68.0552 172.881 68.3988C172.118 68.9589 171.26 69.2947 170.333 69.4567C169.019 69.6865 167.71 69.6593 166.412 69.3461C165.817 69.2027 165.261 68.9659 164.763 68.6029C164.003 68.0498 163.552 67.2965 163.335 66.3928C163.143 65.5928 163.157 64.781 163.204 63.9693C163.237 63.4084 163.361 62.8662 163.591 62.3512C163.978 61.4865 164.622 60.8797 165.475 60.4863C166.15 60.1747 166.865 60.0243 167.6 59.9542C168.344 59.8825 169.09 59.8841 169.833 59.955C170.85 60.0524 171.82 60.3001 172.678 60.8867C173.151 61.21 173.545 61.6104 173.882 62.0879Z" fill="black"/>
<path d="M192.525 69.3406C192.525 66.279 192.525 63.2284 192.525 60.1699C193.486 60.1699 194.442 60.1699 195.409 60.1699C195.409 62.3379 195.409 64.5052 195.409 66.6872C197.224 66.6872 199.026 66.6872 200.834 66.6872C200.834 67.58 200.834 68.4572 200.834 69.3406C198.063 69.3406 195.299 69.3406 192.525 69.3406Z" fill="black"/>
<path d="M126.547 59.8933C127.407 59.9167 128.256 59.9899 129.085 60.2236C129.883 60.4488 130.606 60.8079 131.183 61.4202C131.713 61.9819 132.027 62.6542 132.154 63.4075C132.324 64.4085 132.335 65.4135 132.093 66.4052C131.789 67.6485 131.023 68.5124 129.86 69.0312C129.203 69.3249 128.509 69.4737 127.796 69.5509C127.024 69.6342 126.251 69.6381 125.479 69.5688C124.659 69.4955 123.859 69.3312 123.112 68.9705C121.969 68.4197 121.259 67.5223 120.978 66.286C120.807 65.5373 120.82 64.7778 120.864 64.019C120.894 63.5088 121.005 63.0141 121.201 62.5397C121.563 61.6656 122.182 61.0346 123.018 60.6077C123.661 60.2805 124.349 60.0974 125.06 60.0133C125.553 59.9556 126.051 59.9323 126.547 59.8933ZM126.546 66.959C127.12 66.9505 127.688 66.903 128.227 66.6864C128.821 66.448 129.234 66.0421 129.334 65.3916C129.38 65.0871 129.37 64.7723 129.368 64.4623C129.362 63.7012 128.956 63.127 128.248 62.8497C127.699 62.6347 127.126 62.5763 126.545 62.5763C125.967 62.577 125.395 62.6308 124.853 62.8513C124.266 63.0896 123.864 63.4963 123.768 64.1374C123.722 64.4389 123.731 64.7497 123.732 65.0559C123.738 65.8318 124.148 66.4067 124.873 66.6879C125.412 66.8967 125.974 66.9497 126.546 66.959Z" fill="black"/>
<path d="M154.596 59.8933C155.456 59.9167 156.305 59.9899 157.134 60.2236C157.932 60.4488 158.655 60.8079 159.232 61.4202C159.762 61.9819 160.076 62.6542 160.203 63.4075C160.372 64.4085 160.384 65.4135 160.142 66.4052C159.838 67.6485 159.071 68.5124 157.909 69.0312C157.252 69.3249 156.557 69.4737 155.845 69.5509C155.073 69.6342 154.3 69.6381 153.528 69.5688C152.708 69.4955 151.908 69.3312 151.16 68.9705C150.018 68.4197 149.308 67.5223 149.027 66.286C148.856 65.5373 148.869 64.7778 148.913 64.019C148.943 63.5088 149.054 63.0141 149.25 62.5397C149.612 61.6656 150.231 61.0346 151.067 60.6077C151.71 60.2805 152.398 60.0974 153.109 60.0133C153.602 59.9556 154.1 59.9323 154.596 59.8933ZM154.594 66.959C155.168 66.9505 155.736 66.903 156.276 66.6864C156.87 66.448 157.283 66.0421 157.382 65.3916C157.429 65.0871 157.419 64.7723 157.417 64.4623C157.411 63.7012 157.005 63.127 156.297 62.8497C155.748 62.6347 155.175 62.5763 154.594 62.5763C154.016 62.577 153.444 62.6308 152.902 62.8513C152.315 63.0896 151.913 63.4963 151.816 64.1374C151.77 64.4389 151.78 64.7497 151.781 65.0559C151.787 65.8318 152.197 66.4067 152.922 66.6879C153.462 66.8967 154.024 66.9497 154.594 66.959Z" fill="black"/>
<path d="M182.645 59.8933C183.505 59.9167 184.354 59.9899 185.183 60.2236C185.981 60.4488 186.703 60.8079 187.281 61.4202C187.81 61.9819 188.125 62.6542 188.252 63.4075C188.421 64.4085 188.433 65.4135 188.191 66.4052C187.887 67.6485 187.12 68.5124 185.958 69.0312C185.3 69.3249 184.606 69.4737 183.894 69.5509C183.121 69.6342 182.349 69.6381 181.577 69.5688C180.756 69.4955 179.957 69.3312 179.209 68.9705C178.066 68.4197 177.357 67.5223 177.076 66.286C176.905 65.5373 176.918 64.7778 176.962 64.019C176.991 63.5088 177.103 63.0141 177.299 62.5397C177.661 61.6656 178.28 61.0346 179.116 60.6077C179.758 60.2805 180.446 60.0974 181.158 60.0133C181.651 59.9556 182.149 59.9323 182.645 59.8933ZM182.644 66.959C183.218 66.9505 183.786 66.903 184.326 66.6864C184.919 66.448 185.332 66.0421 185.432 65.3916C185.479 65.0871 185.469 64.7723 185.466 64.4623C185.461 63.7012 185.054 63.127 184.346 62.8497C183.798 62.6347 183.224 62.5763 182.643 62.5763C182.065 62.577 181.493 62.6308 180.951 62.8513C180.365 63.0896 179.963 63.4963 179.866 64.1374C179.821 64.4389 179.829 64.7497 179.831 65.0559C179.836 65.8318 180.247 66.4067 180.971 66.6879C181.51 66.8967 182.073 66.9497 182.644 66.959Z" fill="black"/>
<path d="M96.5221 66.7713C96.5221 67.6352 96.5221 68.4851 96.5221 69.3429C95.5841 69.3429 94.654 69.3429 93.7168 69.3429C93.7168 66.2867 93.7168 63.233 93.7168 60.1722C93.7534 60.1699 93.7838 60.1667 93.815 60.1667C95.8287 60.1675 97.8425 60.166 99.8563 60.173C100.427 60.1745 100.99 60.2493 101.533 60.4386C102.362 60.7276 102.901 61.2932 103.127 62.14C103.342 62.9455 103.364 63.7612 103.145 64.5698C102.875 65.5669 102.214 66.1995 101.248 66.5267C100.683 66.7175 100.098 66.7729 99.5049 66.7721C98.5545 66.7705 97.6041 66.7713 96.6537 66.7713C96.6124 66.7713 96.5711 66.7713 96.5221 66.7713ZM96.5244 64.2426C96.5618 64.2449 96.5898 64.2473 96.6179 64.2473C97.5363 64.2473 98.454 64.248 99.3725 64.2457C99.4956 64.2457 99.6202 64.2379 99.741 64.2177C100.04 64.1686 100.292 64.0432 100.375 63.723C100.406 63.603 100.412 63.4714 100.405 63.3459C100.386 63.0499 100.251 62.8816 99.9591 62.8201C99.7542 62.7765 99.54 62.7609 99.3297 62.7593C98.433 62.7531 97.5356 62.757 96.6389 62.757C96.6015 62.757 96.5641 62.757 96.5244 62.757C96.5244 63.2579 96.5244 63.7448 96.5244 64.2426Z" fill="black"/>
<path d="M107.436 60.1675C107.471 60.166 107.499 60.1628 107.527 60.1628C109.604 60.1644 111.681 60.1621 113.758 60.1699C114.317 60.1722 114.87 60.2509 115.401 60.4394C116.217 60.7284 116.75 61.2862 116.975 62.1197C117.201 62.9533 117.219 63.7954 116.978 64.6298C116.738 65.4594 116.205 66.0413 115.421 66.3981C115.37 66.4215 115.318 66.4441 115.258 66.4706C116.046 67.4257 116.83 68.3753 117.624 69.3382C117.579 69.3413 117.55 69.3452 117.521 69.3452C116.454 69.3452 115.387 69.3444 114.321 69.3475C114.248 69.3475 114.205 69.3226 114.162 69.2688C113.527 68.4657 112.889 67.6648 112.254 66.8617C112.201 66.7947 112.148 66.7643 112.06 66.7651C111.495 66.7689 110.929 66.7674 110.364 66.7674C110.326 66.7674 110.288 66.7674 110.238 66.7674C110.238 67.6305 110.238 68.4836 110.238 69.3413C109.299 69.3413 108.371 69.3413 107.436 69.3413C107.436 66.2867 107.436 63.233 107.436 60.1675ZM110.242 64.2379C110.281 64.2395 110.309 64.2426 110.336 64.2426C111.279 64.2426 112.223 64.2434 113.165 64.241C113.299 64.241 113.434 64.2317 113.566 64.213C113.984 64.153 114.215 63.945 114.257 63.5726C114.31 63.1068 114.134 62.8598 113.702 62.7944C113.514 62.7663 113.323 62.7546 113.133 62.7539C112.207 62.75 111.282 62.7523 110.356 62.7523C110.319 62.7523 110.281 62.7523 110.242 62.7523C110.242 63.254 110.242 63.7401 110.242 64.2379Z" fill="black"/>
<path d="M135.623 60.1706C135.669 60.1691 135.715 60.1667 135.761 60.1667C138.972 60.1667 142.184 60.1667 145.395 60.1667C145.44 60.1667 145.485 60.1667 145.538 60.1667C145.538 61.0315 145.538 61.8876 145.538 62.7539C144.371 62.7539 143.208 62.7539 142.031 62.7539C142.031 64.9554 142.031 67.1468 142.031 69.3444C141.064 69.3444 140.108 69.3444 139.145 69.3444C139.145 67.1515 139.145 64.9624 139.145 62.757C137.966 62.757 136.795 62.757 135.624 62.757C135.623 61.8946 135.623 61.0322 135.623 60.1706Z" fill="black"/>
</svg>
