<svg width="300" height="48" viewBox="0 0 300 48" fill="none" xmlns="http://www.w3.org/2000/svg">
<path d="M72.3593 47.2311C58.9474 47.2311 49.0977 36.8432 49.0977 23.1447C49.0977 9.44626 58.9474 0.0351562 72.3593 0.0351562H97.5803C97.9371 0.0351562 98.2296 0.327608 98.2296 0.6844V11.3297C98.2296 11.6864 97.9371 11.9789 97.5803 11.9789H72.3593C65.7499 11.9789 60.8542 16.9798 60.8542 23.7296C60.8542 30.4794 65.6212 35.223 72.3593 35.223H97.5803C97.9371 35.223 98.2296 35.5154 98.2296 35.8722V46.5877C98.2296 46.9445 97.9371 47.2369 97.5803 47.2369H72.3593V47.2311Z" fill="#0D0D0D"/>
<path d="M127.509 47.2311C113.81 47.2311 103.75 36.8432 103.75 23.1447C103.75 9.44626 113.81 0.0351562 127.509 0.0351562H139.388C153.479 0.0351562 163.211 9.44626 163.211 23.1447C163.211 36.8432 153.215 47.2311 139.388 47.2311H127.509ZM139.388 35.223C146.401 35.223 151.268 30.4209 151.268 23.7296C151.268 17.0383 146.331 11.9789 139.388 11.9789H127.509C120.759 11.9789 115.758 16.9798 115.758 23.7296C115.758 30.4794 120.63 35.223 127.509 35.223H139.388Z" fill="#0D0D0D"/>
<path d="M179.853 20.5184V46.5467C179.853 46.9035 179.561 47.1959 179.204 47.1959H169.384C169.027 47.1959 168.734 46.9035 168.734 46.5467V6.88432C168.734 2.64962 171.01 0 174.548 0C176.256 0 177.455 0.567357 179.035 2.02377L205.747 26.6131C206.162 26.9933 206.835 26.7009 206.835 26.1335V0.713583C206.835 0.356791 207.127 0.0643394 207.484 0.0643394H217.305C217.662 0.0643394 217.954 0.356791 217.954 0.713583V40.3116C217.954 44.5463 215.614 47.1959 212.14 47.1959C210.432 47.1959 209.169 46.6285 207.654 45.1721L180.947 20.0447C180.532 19.6528 179.853 19.9511 179.853 20.5184Z" fill="#0D0D0D"/>
<path d="M223.477 46.5291V0.666822C223.477 0.304181 223.769 0.0175781 224.126 0.0175781H234.824C235.186 0.0175781 235.473 0.31003 235.473 0.666822V46.5291C235.473 46.8918 235.18 47.1784 234.824 47.1784H224.126C223.763 47.1784 223.477 46.8859 223.477 46.5291Z" fill="#0D0D0D"/>
<path d="M276.032 3.82487C274.71 1.52619 273.096 0.0463867 270.762 0.0463867C268.428 0.0463867 266.75 1.52034 265.434 3.82487L241.546 46.2421C241.3 46.6749 241.616 47.213 242.113 47.213H253.191C253.431 47.213 253.648 47.0844 253.759 46.8738L259.064 37.2404C259.181 37.0357 259.397 36.9012 259.631 36.9012H281.097C281.331 36.9012 281.553 37.0299 281.665 37.2346L286.981 46.8679C287.098 47.0727 287.315 47.2013 287.549 47.2013H299.346C299.843 47.2013 300.159 46.6632 299.914 46.2304L276.032 3.82487ZM264.667 27.0572L269.768 17.7865C270.013 17.3361 270.657 17.3361 270.908 17.7865L276.032 27.0572C276.272 27.4901 275.956 28.0223 275.465 28.0223H265.241C264.743 28.0223 264.433 27.4901 264.673 27.0572H264.667Z" fill="#0D0D0D"/>
<path d="M41.0544 27.5315H19.9628C19.606 27.5315 19.3135 27.239 19.3135 26.8822V20.3781C19.3135 20.0213 19.606 19.7289 19.9628 19.7289H41.0544C41.4112 19.7289 41.7037 20.0213 41.7037 20.3781V26.8822C41.7037 27.239 41.4112 27.5315 41.0544 27.5315ZM0 46.576V0.6844C0 0.321759 0.292452 0.0351562 0.649243 0.0351562H42.7916C43.1484 0.0351562 43.4408 0.327608 43.4408 0.6844V11.3297C43.4408 11.6864 43.1484 11.9789 42.7916 11.9789H12.5637C12.2069 11.9789 11.9145 12.2713 11.9145 12.6281V34.5679C11.9145 34.9247 12.2069 35.2171 12.5637 35.2171H42.9261C43.2829 35.2171 43.5753 35.5096 43.5753 35.8664V46.576C43.5753 46.9328 43.2829 47.2252 42.9261 47.2252H0.649243C0.292452 47.2252 0 46.9328 0 46.576Z" fill="#0D0D0D"/>
</svg>
