<svg width="270" height="69" viewBox="0 0 270 69" fill="none" xmlns="http://www.w3.org/2000/svg">
<path d="M88.459 57.2381V23.2184H93.5189L94.0008 25.9643H94.2418C95.6874 24.0835 98.1442 22.7363 101.565 22.7363C107.825 22.7363 112.838 27.8452 112.838 35.4077C112.838 42.97 107.83 48.0788 101.565 48.0788C98.1916 48.0788 95.8336 46.68 94.5817 45.0918H94.3406V57.2337H88.4634L88.459 57.2381ZM106.956 35.4119C106.956 30.9787 104.112 28.1854 100.644 28.1854C97.1761 28.1854 94.3321 30.9787 94.3321 35.4119C94.3321 39.8452 97.1761 42.6386 100.644 42.6386C104.112 42.6386 106.956 39.8452 106.956 35.4119Z" fill="black"/>
<path d="M115.822 35.4122C115.822 28.0392 121.119 22.741 128.201 22.741C135.283 22.741 140.58 28.0392 140.58 35.4122C140.58 42.7852 135.283 48.0836 128.201 48.0836C121.119 48.0836 115.822 42.7336 115.822 35.4122ZM134.655 35.4122C134.655 31.0737 131.764 28.1857 128.201 28.1857C124.638 28.1857 121.7 31.0781 121.7 35.4122C121.7 39.7465 124.638 42.5915 128.201 42.5915C131.764 42.5915 134.655 39.7507 134.655 35.4122Z" fill="black"/>
<path d="M144.836 47.601V13.874H150.713V47.6051H144.836V47.601Z" fill="black"/>
<path d="M172.533 23.218H178.793L168.195 52.8518C167.137 55.7914 165.691 57.2375 161.883 57.2375H156.2V51.7928H161.019C161.888 51.7928 162.365 51.3583 162.658 50.6351L163.234 49.0469L153.312 23.218H159.573L165.885 40.1332H166.849L172.533 23.218Z" fill="black"/>
<path d="M179.918 48.8061H185.89C186.131 50.3946 187.719 52.5638 191.48 52.5638C194.995 52.5638 197.31 50.3471 197.31 46.9727V43.5511H197.069C195.769 44.9497 193.36 46.2023 190.275 46.2023C184.014 46.2023 179.195 41.3816 179.195 34.4434C179.195 27.5053 184.014 22.7363 190.275 22.7363C193.502 22.7363 195.864 24.0362 197.357 25.8696H197.598L198.08 23.2184H203.187V46.9727C203.187 53.4288 198.85 57.7201 191.48 57.7201C183.244 57.7201 180.065 52.3227 179.918 48.8061ZM197.31 34.4478C197.31 30.6429 194.612 27.9917 191.191 27.9917C187.771 27.9917 185.12 30.6429 185.12 34.4478C185.12 38.2527 187.818 40.9514 191.191 40.9514C194.565 40.9514 197.31 38.2999 197.31 34.4478Z" fill="black"/>
<path d="M207.271 35.4122C207.271 28.0392 212.568 22.741 219.65 22.741C226.732 22.741 232.029 28.0392 232.029 35.4122C232.029 42.7852 226.732 48.0836 219.65 48.0836C212.568 48.0836 207.271 42.7336 207.271 35.4122ZM226.104 35.4122C226.104 31.0737 223.213 28.1857 219.65 28.1857C216.088 28.1857 213.149 31.0781 213.149 35.4122C213.149 39.7465 216.088 42.5915 219.65 42.5915C223.213 42.5915 226.104 39.7507 226.104 35.4122Z" fill="black"/>
<path d="M236.12 47.6012V23.2184H241.175L241.657 25.5297H241.898C242.862 24.4236 245.271 22.7363 248.93 22.7363C254.517 22.7363 258.562 26.7821 258.562 32.9499V47.5968H252.685V33.7205C252.685 30.587 250.469 28.3231 247.436 28.3231C244.403 28.3231 241.993 30.686 241.993 33.7205V47.5968H236.115L236.12 47.6012Z" fill="black"/>
<path d="M54.2488 44.7562L68.6969 36.4106C69.4629 35.9673 69.9363 35.1451 69.9363 34.2628V17.5716C69.9363 16.6892 69.4629 15.8672 68.6969 15.4238L54.2488 7.07819C53.4828 6.63487 52.532 6.63918 51.7704 7.07819L37.322 15.4238C36.5562 15.8672 36.0829 16.6892 36.0829 17.5716V47.3989L25.9501 53.2482L15.8173 47.3989V35.6962L25.9501 29.847L32.6322 33.7075V25.8569L27.1892 22.7107C26.8148 22.4955 26.3848 22.3793 25.9501 22.3793C25.5154 22.3793 25.0854 22.4955 24.711 22.7107L10.2626 31.0563C9.49674 31.4996 9.02344 32.3218 9.02344 33.2041V49.8954C9.02344 50.7777 9.49674 51.5997 10.2626 52.043L24.711 60.3888C25.4768 60.8277 26.4235 60.8277 27.1892 60.3888L41.6376 52.043C42.4036 51.5997 42.8767 50.7777 42.8767 49.8954V20.0637L43.0574 19.9603L53.0053 14.2144L63.1381 20.0637V31.7665L53.0053 37.6158L46.3317 33.7635V41.6144L51.766 44.752C52.532 45.191 53.4828 45.191 54.2444 44.752L54.2488 44.7562Z" fill="url(#paint0_linear_1534_84)"/>
<defs>
<linearGradient id="paint0_linear_1534_84" x1="8.82551" y1="51.5308" x2="67.33" y2="17.5842" gradientUnits="userSpaceOnUse">
<stop stop-color="#A726C1"/>
<stop offset="0.88" stop-color="#803BDF"/>
<stop offset="1" stop-color="#7B3FE4"/>
</linearGradient>
</defs>
</svg>
