<svg width="226" height="60" viewBox="0 0 226 60" fill="none" xmlns="http://www.w3.org/2000/svg">
<g clip-path="url(#clip0_1556_4)">
<path d="M182.93 58.6883H226V50.5738H197.609V32.6229H218.58V24.7541H197.689V9.42622H226V1.31148H182.93V58.6883ZM94.2071 60C108.241 50.6557 118.969 36.3115 118.969 20.7377C118.969 8.60656 111.468 0 101.144 0C80.7371 0 73.4784 27.2131 73.4784 27.2131L78.0759 29.7541C81.705 23.3607 86.867 15.4098 96.2236 15.4098C102.837 15.4098 105.176 21.3934 105.176 26.6393C105.176 36.0656 99.6917 46.8033 88.5609 56.9672L94.2071 60ZM70.0906 60C90.4966 60 97.7559 32.7869 97.7559 32.7869L93.1584 30.2459C89.5288 36.6393 84.3668 44.5902 75.0107 44.5902C68.3967 44.5902 66.0581 38.6066 66.0581 33.3607C66.0581 23.9344 71.5427 13.1967 82.6729 3.03279L77.0272 0C62.9929 9.34428 52.2655 23.6885 52.2655 39.2623C52.2655 51.3934 59.7666 60 70.0906 60ZM14.6795 26.0656V9.42622H22.5032C26.6167 9.42622 30.3269 11.3115 30.3269 17.7049C30.3269 24.0983 26.9393 26.0656 22.5032 26.0656H14.6795ZM0 58.6883H14.6795V34.1803H25.5682C29.359 34.1803 30.3269 35 30.3269 39.0984V58.6883H45.0064V38.8524C45.0064 31.8852 42.9094 29.1803 34.1984 29.0164V28.5246C38.9572 27.7049 45.329 23.7705 45.329 15.6557C45.329 6.88522 39.6024 1.31148 29.117 1.31148H0V58.6883ZM139.939 58.6883H159.297L177.364 1.31148H163.007L150.344 45.7377H149.376L136.713 1.31148H121.872L139.939 58.6883Z" fill="#2E2E2E"/>
</g>
<defs>
<clipPath id="clip0_1556_4">
<rect width="226" height="60" fill="white"/>
</clipPath>
</defs>
</svg>
