<svg width="140" height="81" viewBox="0 0 140 81" fill="none" xmlns="http://www.w3.org/2000/svg">
<path d="M77.8214 39.2369C77.8282 39.8193 77.9922 40.3891 78.296 40.886C78.5999 41.383 79.0324 41.7886 79.5477 42.06C80.8551 42.8047 82.2565 43.3704 83.7145 43.7418C85.3415 44.1423 86.9685 44.6229 88.5958 45.1835C90.2152 45.6986 91.6586 46.6556 92.7636 47.9467C93.9509 49.3292 94.568 51.1116 94.4897 52.9323C94.527 54.1965 94.2599 55.4511 93.7108 56.5905C93.1618 57.7298 92.347 58.7205 91.3349 59.4791C89.0398 61.1959 86.2215 62.066 83.358 61.9419C80.7459 62.0171 78.166 61.3506 75.9172 60.0197C73.9377 58.8363 72.3927 57.046 71.5117 54.9147L75.9762 52.3316C76.4369 53.7537 77.3859 54.9668 78.6554 55.7561C80.0668 56.6251 81.7011 57.0635 83.358 57.0175C84.8267 57.0737 86.2843 56.7422 87.5844 56.0564C88.1213 55.738 88.5607 55.2784 88.8545 54.7276C89.1484 54.1769 89.2856 53.556 89.2511 52.9327C89.248 52.3573 89.085 51.7941 88.7801 51.3061C88.4752 50.8181 88.0405 50.4246 87.5247 50.1696C86.2338 49.3915 84.8273 48.8238 83.358 48.4877C81.731 48.0473 80.104 47.5467 78.4769 46.986C76.8726 46.4404 75.437 45.4884 74.3101 44.2229C73.1295 42.8601 72.5122 41.0989 72.5838 39.2973C72.5573 38.07 72.8117 36.8529 73.3275 35.7389C73.8433 34.625 74.607 33.6437 75.56 32.87C77.6957 31.1492 80.3788 30.2537 83.1199 30.3469C85.377 30.3037 87.602 30.8859 89.5488 32.029C91.4158 33.0699 92.9135 34.6652 93.8346 36.5942L89.4892 39.057C88.9826 37.8159 88.0892 36.7713 86.9416 36.0785C85.7939 35.3857 84.4534 35.0817 83.1192 35.2117C81.787 35.1718 80.4756 35.5499 79.3691 36.293C78.8745 36.6038 78.4709 37.0397 78.1992 37.5567C77.9274 38.0737 77.797 38.6533 77.8214 39.2369Z" fill="#1D2947"/>
<path d="M120.865 31.1274H126.044V61.162H120.865V56.8371C119.875 58.4856 118.453 59.8325 116.754 60.7322C115.055 61.632 113.142 62.0505 111.222 61.9426C109.669 62.0122 108.119 61.754 106.673 61.1848C105.227 60.6156 103.917 59.7482 102.829 58.639C100.633 56.1436 99.5002 52.8881 99.6736 49.5686V31.1274H104.852V49.268C104.726 51.3553 105.432 53.4077 106.817 54.9746C107.537 55.6565 108.389 56.1841 109.321 56.5249C110.252 56.8658 111.243 57.0128 112.234 56.957C113.384 57.0059 114.533 56.8179 115.608 56.4045C116.683 55.9912 117.662 55.3614 118.484 54.5542C120.228 52.4584 121.082 49.7634 120.865 47.0456V31.1274Z" fill="#1D2947"/>
<path d="M136.547 25.6609C135.856 25.6654 135.18 25.4647 134.603 25.0842C134.026 24.7038 133.576 24.1607 133.308 23.5238C133.04 22.8869 132.967 22.1849 133.099 21.5067C133.231 20.8284 133.561 20.2045 134.047 19.714C134.362 19.3657 134.749 19.0889 135.18 18.9024C135.611 18.7159 136.078 18.624 136.547 18.6329C137.008 18.6284 137.464 18.7225 137.885 18.909C138.306 19.0955 138.682 19.37 138.988 19.714C139.636 20.3698 140 21.2548 140 22.1769C140 23.0991 139.636 23.9841 138.988 24.6398C138.673 24.9686 138.294 25.229 137.874 25.4047C137.454 25.5804 137.002 25.6676 136.547 25.6609ZM133.929 61.1614V31.1268H139.107V61.1614H133.929Z" fill="#1D2947"/>
<path fill-rule="evenodd" clip-rule="evenodd" d="M3.74912 66.5838C6.14244 70.8296 9.62145 74.3627 13.8297 76.8213C18.038 79.28 22.8242 80.5756 27.698 80.5756C32.5719 80.5756 37.3581 79.28 41.5663 76.8213C45.7746 74.3627 49.2536 70.8296 51.6469 66.5838C54.103 62.3301 55.396 57.5048 55.396 52.593C55.396 47.6811 54.103 42.8558 51.6469 38.6021L30.5834 1.68556C30.295 1.17408 29.8759 0.748447 29.3689 0.452266C28.8618 0.156085 28.2852 0 27.698 0C27.1108 0 26.5342 0.156085 26.0272 0.452266C25.5202 0.748447 25.101 1.17408 24.8126 1.68556L3.74912 38.6021C1.29303 42.8558 0 47.6811 0 52.593C0 57.5048 1.29303 62.3301 3.74912 66.5838ZM21.7644 19.2484L26.2553 11.3772C26.3995 11.1215 26.6091 10.9086 26.8626 10.7606C27.1161 10.6125 27.4044 10.5344 27.698 10.5344C27.9916 10.5344 28.2799 10.6125 28.5334 10.7606C28.7869 10.9086 28.9965 11.1215 29.1407 11.3772L46.4178 41.6575C47.9687 44.3423 48.9302 47.3266 49.2384 50.4118C49.5466 53.497 49.1943 56.6124 48.2051 59.551C47.9902 58.5493 47.6946 57.5667 47.3212 56.6128C44.9348 50.5184 39.5388 45.8156 31.28 42.6343C25.602 40.4549 21.9776 37.2496 20.5048 33.1062C18.6081 27.7679 20.5892 21.9451 21.7644 19.2484ZM14.1065 32.6701L8.97828 41.6575C7.05829 44.9825 6.04749 48.7544 6.04749 52.5939C6.04749 56.4334 7.05829 60.2052 8.97828 63.5302C10.5303 66.2796 12.6686 68.6537 15.2413 70.4837C17.8141 72.3138 20.7581 73.5551 23.8645 74.1194C26.9709 74.6837 30.1635 74.5572 33.2155 73.7489C36.2675 72.9406 39.1041 71.4703 41.524 69.4425C42.8612 66.0237 42.909 62.2351 41.6584 58.7837C39.9058 54.3806 35.6865 50.8655 29.1184 48.3338C21.6939 45.4841 16.8709 41.0351 14.7846 35.1144C14.5036 34.3159 14.277 33.4993 14.1065 32.6701Z" fill="#1D2947"/>
</svg>
