<svg width="110" height="40" viewBox="0 0 110 40" fill="none" xmlns="http://www.w3.org/2000/svg">
<path d="M84.2782 15.7229H81.999C81.8675 15.7227 81.7375 15.6945 81.6178 15.6402C81.4981 15.5858 81.3913 15.5065 81.3046 15.4076L80.3802 14.3639C80.3118 14.2874 80.2281 14.2263 80.1345 14.1844C80.0409 14.1425 79.9396 14.1208 79.837 14.1208C79.7345 14.1208 79.6331 14.1425 79.5395 14.1844C79.4459 14.2263 79.3622 14.2874 79.2939 14.3639L78.5015 15.2585C78.3738 15.4041 78.2166 15.5208 78.0403 15.6008C77.864 15.6809 77.6727 15.7225 77.479 15.7229H65.0055C64.6459 16.7536 64.4183 17.8257 64.3281 18.9137H76.103C76.2051 18.9135 76.306 18.8927 76.3997 18.8524C76.4934 18.8121 76.578 18.7533 76.6483 18.6794L77.7474 17.5334C77.8154 17.4632 77.8969 17.4074 77.9869 17.3694C78.0769 17.3313 78.1737 17.3118 78.2714 17.3119H78.314C78.4168 17.3123 78.5183 17.3342 78.6122 17.376C78.7061 17.4178 78.7902 17.4786 78.8593 17.5547L79.7838 18.5984C79.8702 18.6976 79.977 18.777 80.0968 18.8314C80.2165 18.8857 80.3466 18.9138 80.4782 18.9137H90.0847C89.9966 17.8254 89.7689 16.753 89.4073 15.7229H84.2952H84.2782Z" fill="black"/>
<path d="M71.4502 25.6233C71.5521 25.6227 71.6529 25.6017 71.7466 25.5614C71.8402 25.5212 71.9248 25.4626 71.9955 25.389L73.0903 24.2431C73.1588 24.1735 73.2403 24.1181 73.3302 24.08C73.4201 24.042 73.5167 24.0222 73.6143 24.0216H73.6612C73.7639 24.022 73.8655 24.0438 73.9593 24.0857C74.0532 24.1275 74.1374 24.1883 74.2065 24.2644L75.1266 25.3081C75.2137 25.4066 75.3205 25.4856 75.4402 25.5399C75.5598 25.5942 75.6896 25.6227 75.821 25.6233H88.8442C89.3403 24.6032 89.6985 23.5216 89.9092 22.407H77.4058C77.2754 22.4065 77.1465 22.3786 77.0276 22.325C76.9087 22.2714 76.8024 22.1934 76.7157 22.096L75.7912 21.0523C75.723 20.9748 75.6391 20.9127 75.5451 20.8701C75.4511 20.8275 75.3491 20.8054 75.2459 20.8052C75.1433 20.8049 75.0417 20.8268 74.9483 20.8695C74.8549 20.9121 74.7719 20.9745 74.7049 21.0523L73.9125 21.9469C73.7836 22.0918 73.6255 22.2077 73.4485 22.287C73.2715 22.3663 73.0798 22.4072 72.8858 22.407H64.502C64.7106 23.5243 65.0673 24.6089 65.5627 25.6319L71.4502 25.6233Z" fill="black"/>
<path d="M80.6909 12.2338C80.7935 12.2337 80.8951 12.213 80.9895 12.1727C81.084 12.1324 81.1693 12.0735 81.2404 11.9995L82.3353 10.8578C82.4028 10.7866 82.484 10.7299 82.5741 10.6911C82.6641 10.6523 82.7612 10.6322 82.8592 10.632H82.9061C83.0088 10.6317 83.1103 10.6536 83.2037 10.6963C83.2971 10.7389 83.3801 10.8013 83.4471 10.8791L84.3716 11.9228C84.4593 12.0201 84.5664 12.098 84.686 12.1516C84.8055 12.2051 84.935 12.2331 85.066 12.2338H87.5411C86.337 10.6305 84.7763 9.32932 82.9826 8.4332C81.1888 7.53707 79.2112 7.07056 77.2061 7.07056C75.201 7.07056 73.2233 7.53707 71.4296 8.4332C69.6359 9.32932 68.0752 10.6305 66.8711 12.2338H80.6909Z" fill="black"/>
<path d="M75.7157 28.8183H72.3289C72.198 28.8181 72.0687 28.7899 71.9497 28.7355C71.8306 28.6811 71.7246 28.6019 71.6388 28.5031L70.7186 27.4594C70.6499 27.3828 70.5658 27.3216 70.4718 27.2796C70.3779 27.2377 70.2762 27.2161 70.1733 27.2161C70.0704 27.2161 69.9687 27.2377 69.8747 27.2796C69.7808 27.3216 69.6967 27.3828 69.628 27.4594L68.8314 28.371C68.7039 28.5168 68.5467 28.6336 68.3704 28.7137C68.194 28.7938 68.0026 28.8353 67.8089 28.8354H67.7578C68.9668 30.1323 70.4298 31.1665 72.0558 31.8736C73.6817 32.5807 75.4358 32.9456 77.2088 32.9456C78.9819 32.9456 80.736 32.5807 82.3619 31.8736C83.9878 31.1665 85.4508 30.1323 86.6599 28.8354L75.7157 28.8183Z" fill="black"/>
<path d="M20.0523 32.0944L17.4238 25.7043H5.67019L3.04171 32.0944H0L11.5278 7.92261L23.094 32.0944H20.0523ZM6.66279 23.2803H16.3971L11.5023 12.9751L6.66279 23.2803Z" fill="black"/>
<path d="M27.2949 32.0944V7.92261H34.0259C39.2871 7.92261 42.0519 10.3296 42.0519 14.8751C42.0519 19.2459 39.1167 21.7764 33.9918 21.7764H30.1321V32.0944H27.2949ZM30.1321 19.2459H33.3443C37.4084 19.2459 39.1934 17.9168 39.1934 14.8751C39.1934 11.7311 37.3828 10.4318 33.3528 10.4318H30.1321V19.2459Z" fill="black"/>
<path d="M52.3526 10.4999H44.0156V7.90552H63.5226V10.4999H55.1856V32.0944H52.3526V10.4999Z" fill="black"/>
<path d="M94.0801 27.6853L96.5211 26.0281L96.7086 26.42C98.2124 29.155 99.8525 30.2541 102.345 30.2541C105.114 30.2541 107.061 28.3413 107.061 26.0153C107.061 23.8299 105.966 22.3602 101.595 20.5496C96.5722 18.4664 94.8639 16.3151 94.8639 13.2393C94.8639 9.89085 97.4967 7.27515 102.038 7.27515C105.386 7.27515 107.674 8.70654 108.973 11.0326L106.992 12.4L106.413 12.2595C105.386 10.6577 104.121 9.73322 101.97 9.73322C99.3413 9.73322 97.8034 11.203 97.8034 13.1839C97.8034 15.0285 98.7917 16.0893 103.065 18.0362C108.633 20.5624 110 22.6456 110 25.994C110 29.6492 106.856 32.7591 102.379 32.7591C98.6213 32.7591 96.0269 31.3234 94.0801 27.7023" fill="black"/>
</svg>
