<svg width="150" height="26" viewBox="0 0 150 26" fill="none" xmlns="http://www.w3.org/2000/svg">
<path d="M4.392 3.98301L11.412 0L18.432 3.98301L15.798 5.38325L11.412 2.90636L6.912 5.38325L4.392 3.98301ZM18.324 8.93089L15.798 7.53066L11.412 10.0075L6.912 7.53066L4.386 8.93089V11.8373L8.778 14.3141V19.3738L11.304 20.8799L13.83 19.3738V14.4259L18.222 11.949V8.93678H18.324V8.93089ZM18.324 16.8969V13.9906L15.798 15.4967V18.2913L18.324 16.8969ZM20.19 17.8618L15.804 20.3387V23.245L22.83 19.262V11.3019L20.196 12.9139L20.19 17.8618ZM17.664 6.4599L20.19 7.96603V10.8724L22.716 9.36626V6.4599L20.19 4.95376L17.664 6.4599ZM8.778 21.4153V24.3217L11.304 25.8278L13.83 24.3217V21.4153L11.304 22.9214L8.778 21.4153ZM4.386 16.8969L6.912 18.2972V15.3908L4.386 13.8847V16.8969ZM8.778 6.4599L11.304 7.96603L13.938 6.4599L11.412 4.95376L8.778 6.4599ZM2.526 7.96603L5.16 6.4599L2.526 4.95376L0 6.4599V9.36626L2.526 10.8724V7.96603ZM2.526 12.9139L0 11.4078V19.3679L7.026 23.3509V20.4446L2.634 17.9677V12.908L2.526 12.9139Z" fill="#F0B90B"/>
<path d="M43.0133 16.2498C43.0133 14.3142 41.9153 13.3434 40.2713 12.6962C41.3693 12.1609 42.2453 11.1901 42.2453 9.57807C42.2453 7.31888 40.3793 5.81274 37.4153 5.81274H30.6113V20.2328H37.6313C40.8173 20.121 43.0133 18.8326 43.0133 16.2498ZM38.9513 10.1135C38.9513 11.1901 38.0753 11.6196 36.6473 11.6196H33.6833V8.50143H36.8633C38.2973 8.50143 38.9513 9.04269 38.9513 10.1135ZM39.8333 15.8203C39.8333 16.8969 38.9573 17.4323 37.5293 17.4323H33.6893V14.3142H37.4213C39.0653 14.2024 39.8333 14.8495 39.8333 15.8203Z" fill="#F0B90B"/>
<path d="M58.9251 20.121V5.81274H55.7391V14.6377L48.8271 5.81274H45.8691V20.2328H49.0491V11.0842L56.1831 20.2328H58.9251V20.121Z" fill="#F0B90B"/>
<path d="M75.0543 16.2498C75.0543 14.3142 73.9563 13.3434 72.3123 12.6962C73.4103 12.1609 74.2863 11.1901 74.2863 9.57807C74.2863 7.31888 72.4203 5.81274 69.4563 5.81274H62.6523V20.2328H69.6723C72.8583 20.121 75.0543 18.8326 75.0543 16.2498ZM71.1063 10.1135C71.1063 11.1901 70.2303 11.6196 68.8023 11.6196H65.8383V8.50143H69.0183C70.3383 8.50143 71.1063 9.04269 71.1063 10.1135ZM71.8743 15.8203C71.8743 16.8969 70.9983 17.4323 69.5703 17.4323H65.7303V14.3142H69.4623C71.1063 14.2024 71.8743 14.8495 71.8743 15.8203Z" fill="#F0B90B"/>
<path d="M94.4758 17.65L92.8318 16.0379C91.6258 17.2205 90.4198 17.8676 88.6618 17.8676C85.8058 17.8676 83.8318 15.6084 83.8318 12.7021C83.8318 9.90162 85.9198 7.6483 88.6618 7.6483C90.3058 7.6483 91.6258 8.40137 92.7238 9.47802L94.3678 7.5424C92.9398 6.25395 91.2958 5.2832 88.6618 5.2832C84.2698 5.2832 81.0898 8.61905 81.0898 12.708C81.0898 16.9028 84.2698 20.1327 88.5538 20.1327C91.2958 20.121 92.9398 19.1561 94.4758 17.65Z" fill="#F0B90B"/>
<path d="M106.985 13.8848V19.9093H109.511V5.48926H106.985V11.5138H99.9655V5.48926H97.4395V19.9093H99.9655V13.8848H106.985Z" fill="#F0B90B"/>
<path d="M121.14 5.48926H118.728L112.254 20.0152H114.888L116.424 16.5735H123.336L124.872 20.0152H127.614L121.14 5.48926ZM122.46 14.2025H117.414L119.94 8.50152L122.46 14.2025Z" fill="#F0B90B"/>
<path d="M130.471 5.48926V19.9093H132.991V5.48926H130.471Z" fill="#F0B90B"/>
<path d="M147.366 15.4968L139.464 5.59516H137.16V20.0152H139.686V9.68407L147.804 19.9093H150V5.48926H147.474V15.4968H147.366Z" fill="#F0B90B"/>
</svg>
