<svg width="123" height="41" viewBox="0 0 123 41" fill="none" xmlns="http://www.w3.org/2000/svg">
<path d="M44.6513 22.1797C45.1077 23.6449 45.2732 25.167 45.1444 26.7024C45.0156 28.2377 44.5987 29.7109 43.9051 31.0797C43.1869 32.4977 42.2015 33.7412 40.9789 34.7756C39.7553 35.81 38.3654 36.5736 36.8477 37.0458C35.7031 37.4022 34.5242 37.5809 33.3305 37.5809C32.9959 37.5809 32.6605 37.5669 32.3242 37.5388C30.7889 37.41 29.3157 36.9931 27.946 36.2995C26.528 35.5813 25.2844 34.596 24.25 33.3733C22.339 31.113 21.3345 28.2429 21.4212 25.2914C21.5079 22.3268 22.6877 19.5602 24.7423 17.501C25.8485 16.393 29.0093 13.7323 30.9431 12.1235C30.9299 12.0218 30.9229 11.9185 30.9229 11.8126C30.9229 10.4911 31.994 9.41985 33.3157 9.41985C34.6372 9.41985 35.7085 10.4909 35.7085 11.8126C35.7085 13.1343 34.6374 14.2054 33.3157 14.2054C33.0547 14.2054 32.8025 14.1633 32.5678 14.0864C30.6647 15.6699 27.5721 18.2728 26.5457 19.301C23.2499 22.6028 23.0958 28.0618 26.1962 31.7296C28.0371 33.9077 30.6725 35.0306 33.3235 35.0306C35.4499 35.0306 37.5869 34.3088 39.3342 32.8322C43.2605 29.5137 43.7545 23.6204 40.436 19.6942C39.8975 19.0566 39.279 18.4961 38.5985 18.0275C38.2456 17.7849 38.0231 17.4013 37.9864 16.9748C37.9497 16.5491 38.1038 16.1332 38.4095 15.8345C39.4553 14.8125 40.0315 13.4436 40.0315 11.9819V11.7534C40.0315 8.51984 37.4004 5.889 34.1671 5.889H29.1995C27.9418 5.889 26.9189 6.91203 26.9189 8.16953V12.0363L24.372 14.2275V8.16753C24.372 7.51595 24.4998 6.88352 24.7521 6.28796C24.9955 5.71255 25.3432 5.19675 25.7865 4.75352C26.2297 4.3103 26.7455 3.96258 27.3209 3.71913C27.9172 3.46691 28.5497 3.33911 29.2005 3.33911H34.1681C35.3031 3.33911 36.4049 3.56162 37.4427 4.00026C38.4446 4.42415 39.344 5.03027 40.1166 5.80267C40.889 6.57507 41.4951 7.47468 41.919 8.47657C42.3579 9.51436 42.5802 10.6161 42.5802 11.7512V11.9797C42.5802 13.0665 42.3638 14.1193 41.9382 15.1108C41.6965 15.6731 41.3934 16.2002 41.0334 16.6881C41.5177 17.1032 41.9687 17.5578 42.383 18.0473C43.4156 19.2721 44.1794 20.662 44.6513 22.1797ZM31.3951 21.1646C32.0038 20.9072 32.6502 20.7766 33.3157 20.7766C33.9812 20.7766 34.6276 20.9072 35.2363 21.1646C35.8239 21.4134 36.3513 21.7689 36.8041 22.2217C37.2569 22.6745 37.6124 23.2017 37.8612 23.7895C38.1186 24.3982 38.2492 25.0446 38.2492 25.7101C38.2492 26.3757 38.1188 27.022 37.8612 27.6308C37.6124 28.2183 37.2569 28.7457 36.8041 29.1985C36.3513 29.6513 35.8241 30.0068 35.2363 30.2556C34.6276 30.513 33.9812 30.6436 33.3157 30.6436C32.6502 30.6436 32.0038 30.513 31.3951 30.2556C30.8075 30.0068 30.2801 29.6513 29.8273 29.1985C29.3745 28.7457 29.019 28.2185 28.7702 27.6308C28.5128 27.022 28.3822 26.3757 28.3822 25.7101C28.3822 25.0446 28.5128 24.3982 28.7702 23.7895C29.019 23.2019 29.3745 22.6745 29.8273 22.2217C30.2801 21.7689 30.8075 21.4134 31.3951 21.1646ZM35.7033 25.7109C35.7033 24.3946 34.6322 23.3243 33.3167 23.3243C32.0004 23.3243 30.9301 24.3954 30.9301 25.7109C30.9301 27.0272 32.0012 28.0975 33.3167 28.0975C34.6322 28.0975 35.7033 27.0264 35.7033 25.7109Z" fill="#F16127"/>
<path d="M77.3184 29.3233C77.3184 26.323 77.3184 23.3329 77.3184 20.334C78.2616 20.334 79.2003 20.334 80.1444 20.334C80.1444 23.3315 80.1444 26.3248 80.1444 29.3233C79.2017 29.3233 78.2648 29.3233 77.3184 29.3233Z" fill="white"/>
<path d="M100.919 24.2276C100.919 24.1903 100.919 24.1526 100.919 24.1129C98.8256 24.1129 96.7438 24.1129 94.6651 24.1129C94.6651 24.8544 94.6651 25.5864 94.6651 26.3243C95.8055 26.3243 96.9376 26.3243 98.0868 26.3243C98.0868 26.4361 98.0829 26.5364 98.0888 26.6357C98.092 26.6949 98.0715 26.7256 98.0155 26.7394C97.7976 26.792 97.5822 26.8626 97.3617 26.8969C96.7608 26.99 96.1544 26.995 95.5485 26.9585C95.1157 26.9322 94.6884 26.8686 94.2805 26.7107C93.6973 26.4852 93.2995 26.0874 93.2186 25.4548C93.1707 25.0801 93.1906 24.6953 93.2 24.3155C93.2064 24.0637 93.2903 23.8262 93.4199 23.6087C93.6925 23.1519 94.1241 22.9278 94.6192 22.8056C95.2008 22.6619 95.7906 22.6517 96.3833 22.7197C97.1703 22.8096 97.8867 23.0802 98.5165 23.5652C98.6669 23.6807 98.8072 23.8091 98.9583 23.9367C99.5485 23.2054 100.14 22.4734 100.734 21.7375C100.682 21.6954 100.637 21.6586 100.591 21.6217C99.5132 20.7436 98.2787 20.2515 96.8961 20.1267C96.1493 20.0591 95.4018 20.0529 94.6553 20.1271C93.9457 20.1975 93.254 20.3442 92.6027 20.6451C91.7023 21.0606 91.0467 21.7122 90.6822 22.6433C90.6084 22.8317 90.549 23.0227 90.502 23.2159C90.502 22.2559 90.502 21.2961 90.502 20.3361C89.5802 20.3361 88.6649 20.3361 87.7362 20.3361C87.7362 21.9859 87.7362 23.6271 87.7362 25.2893C87.6969 25.244 87.6742 25.2185 87.6518 25.1924C86.299 23.6015 84.946 22.0111 83.5954 20.4186C83.5384 20.3514 83.482 20.3247 83.3936 20.3255C82.9506 20.3303 82.5072 20.3271 82.064 20.3279C81.5998 20.3287 81.136 20.3307 80.6719 20.3319C80.6719 23.3314 80.6719 26.3311 80.6719 29.3302C81.5948 29.3302 82.5175 29.3302 83.451 29.3302C83.451 27.6651 83.451 26.0152 83.451 24.3373C83.5025 24.3965 83.5358 24.434 83.5685 24.4724C84.9147 26.0641 86.2609 27.6558 87.606 29.2486C87.6542 29.3056 87.7015 29.333 87.78 29.3328C88.6495 29.3296 89.5186 29.3308 90.3881 29.3308C90.425 29.3308 90.4623 29.3308 90.5024 29.3308C90.5024 28.3677 90.5024 27.4063 90.5024 26.4453C90.8001 27.6631 91.516 28.537 92.6796 29.0476C93.4054 29.3661 94.1724 29.5064 94.9566 29.5567C96.095 29.6296 97.2261 29.5636 98.3448 29.3308C99.2171 29.1493 100.052 28.8654 100.823 28.409C100.893 28.367 100.921 28.3227 100.921 28.2386C100.918 26.9013 100.919 25.5644 100.919 24.2276Z" fill="white"/>
<path d="M74.9942 26.5105C75.0534 26.4842 75.1039 26.4623 75.1541 26.4394C75.9219 26.0898 76.4445 25.5196 76.6798 24.7059C76.9166 23.8879 76.8981 23.0628 76.6774 22.2456C76.4567 21.4279 75.9329 20.8812 75.1336 20.5977C74.612 20.4127 74.0713 20.3357 73.5226 20.3333C71.4863 20.3251 69.4502 20.3273 67.4139 20.3263C67.3864 20.3263 67.3589 20.3291 67.3252 20.3311C67.3252 20.9921 67.3252 21.6524 67.3252 22.3124C67.179 22.0436 66.9978 21.7916 66.7789 21.5593C66.213 20.9588 65.5044 20.6067 64.7227 20.3863C63.9098 20.1574 63.0772 20.0855 62.2344 20.0627C61.7483 20.1008 61.26 20.124 60.7763 20.181C60.0785 20.2635 59.4042 20.4422 58.7743 20.7634C57.9543 21.1813 57.3471 21.8002 56.993 22.6571C56.801 23.1221 56.6914 23.6071 56.6629 24.1074C56.6401 24.5008 56.6262 24.8944 56.6423 25.2863C56.3825 24.9649 56.0212 24.7217 55.577 24.5853C55.5122 24.5654 55.4454 24.5492 55.3782 24.5311C55.3834 24.5205 55.3842 24.5165 55.3864 24.5149C55.4131 24.4992 55.4398 24.4834 55.467 24.4687C55.8145 24.2771 56.0741 24.0029 56.2418 23.6424C56.4268 23.2451 56.4681 22.8256 56.4264 22.3947C56.3518 21.6211 55.9931 21.0339 55.2867 20.68C54.797 20.435 54.2693 20.3369 53.7292 20.3349C51.4883 20.3259 49.2475 20.3289 47.0066 20.3279C46.9799 20.3279 46.9532 20.3327 46.9219 20.3353C46.9219 23.332 46.9219 26.3233 46.9219 29.3304C46.9612 29.3304 46.9919 29.3304 47.022 29.3304C49.3705 29.3304 51.7184 29.3304 54.0669 29.33C54.4768 29.33 54.8834 29.2919 55.2799 29.1838C55.8883 29.0178 56.4003 28.7113 56.7376 28.16C56.9224 27.8584 57.0184 27.5324 57.0674 27.1922C57.4327 27.968 58.031 28.559 58.8658 28.9611C59.5989 29.3146 60.3825 29.4755 61.1868 29.5479C61.9439 29.6159 62.7011 29.6115 63.458 29.5302C64.1566 29.4548 64.8375 29.3083 65.4821 29.0208C66.3097 28.6515 66.9324 28.1034 67.3256 27.3645C67.3256 28.0177 67.3256 28.6706 67.3256 29.3236C68.2429 29.3236 69.1525 29.3236 70.0735 29.3236C70.0735 28.4828 70.0735 27.6468 70.0735 26.8004C70.1221 26.8004 70.1594 26.8004 70.1967 26.8004C70.7508 26.8004 71.3048 26.8024 71.8591 26.7984C71.9451 26.7977 71.9969 26.8276 72.0487 26.8932C72.6712 27.6809 73.2969 28.4663 73.9199 29.2534C73.962 29.3061 74.0039 29.3308 74.075 29.3308C75.1208 29.3284 76.1666 29.3292 77.2125 29.3288C77.2412 29.3288 77.2703 29.3248 77.3142 29.3218C76.5352 28.3777 75.7672 27.447 74.9942 26.5105ZM49.6745 22.8664C49.7138 22.8664 49.7503 22.8664 49.7868 22.8664C50.8431 22.8664 51.8996 22.8649 52.956 22.868C53.0758 22.8684 53.197 22.8834 53.3148 22.9073C53.4845 22.9418 53.5874 23.0535 53.6137 23.2253C53.6416 23.4064 53.5934 23.5619 53.4405 23.6745C53.3152 23.7669 53.1687 23.7964 53.0184 23.7968C51.9168 23.7992 50.8156 23.7984 49.714 23.798C49.7042 23.798 49.6947 23.7936 49.6743 23.7894C49.6745 23.4827 49.6745 23.1819 49.6745 22.8664ZM54.0037 26.7049C53.8887 26.7462 53.7615 26.7705 53.6392 26.7713C52.6904 26.7769 51.7417 26.7753 50.7929 26.7757C50.4603 26.7757 50.1279 26.7757 49.7954 26.7757C49.7581 26.7757 49.7208 26.7757 49.6743 26.7757C49.6743 26.4238 49.6743 26.0885 49.6747 25.7373C49.714 25.7373 49.7505 25.7373 49.787 25.7373C51.0335 25.7373 52.2803 25.7361 53.5268 25.7393C53.6642 25.7397 53.8045 25.7527 53.9387 25.781C54.1566 25.8269 54.2671 25.9648 54.283 26.1792C54.303 26.4398 54.2107 26.6302 54.0037 26.7049ZM64.9667 25.452C64.8694 26.0894 64.4645 26.4872 63.8825 26.7213C63.3531 26.9342 62.7962 26.9805 62.2334 26.9891C61.6737 26.9801 61.1224 26.9278 60.5939 26.7229C59.8835 26.4471 59.4809 25.8841 59.4757 25.1234C59.4737 24.8226 59.4652 24.5179 59.5098 24.2226C59.6049 23.594 59.9991 23.1948 60.5741 22.9616C61.1059 22.7456 61.6663 22.6926 62.233 22.6922C62.8036 22.6918 63.3653 22.7492 63.9028 22.96C64.5966 23.2321 64.9954 23.7952 65.0008 24.5411C65.0028 24.8449 65.0124 25.1538 64.9667 25.452ZM74.0132 23.67C73.9716 24.0348 73.7451 24.2386 73.3353 24.2976C73.2057 24.3161 73.0733 24.3247 72.9422 24.3251C72.0172 24.3275 71.0929 24.3263 70.168 24.3263C70.1408 24.3263 70.1133 24.3239 70.076 24.3219C70.076 23.8342 70.076 23.3575 70.076 22.8655C70.1149 22.8655 70.1514 22.8655 70.1879 22.8655C71.0955 22.8655 72.0027 22.8635 72.9103 22.8674C73.0965 22.8682 73.2845 22.8792 73.4683 22.9071C73.8922 22.9709 74.0651 23.2132 74.0132 23.67Z" fill="white"/>
<path d="M87.328 31.1146C86.9635 31.424 86.603 31.7303 86.2479 32.0315C86.1219 31.9235 86.0041 31.8144 85.8781 31.7161C85.5537 31.4639 85.1786 31.3596 84.7721 31.3544C84.4984 31.3513 84.2278 31.3702 83.9682 31.4679C83.6255 31.5971 83.4251 31.8417 83.398 32.2082C83.3838 32.3986 83.383 32.5946 83.4089 32.7832C83.4584 33.1437 83.6909 33.3574 84.0262 33.4681C84.2906 33.5552 84.5636 33.5698 84.8387 33.5604C85.0566 33.553 85.2716 33.5255 85.4789 33.4543C85.7888 33.3479 86.0338 33.1551 86.2302 32.8959C86.2493 32.8703 86.2683 32.8448 86.289 32.8173C86.6704 33.1028 87.0488 33.3863 87.4295 33.6711C87.2606 33.9161 87.0592 34.1227 86.8232 34.2959C86.4387 34.5782 86.0059 34.7475 85.5385 34.8293C84.8764 34.9451 84.2162 34.9314 83.5621 34.7734C83.262 34.7013 82.9817 34.5818 82.7306 34.3988C82.3478 34.1201 82.1203 33.7402 82.0109 33.2847C81.914 32.8813 81.921 32.4722 81.9449 32.0628C81.9614 31.7801 82.0242 31.5068 82.1401 31.2472C82.3349 30.8113 82.6597 30.5053 83.0897 30.3071C83.4299 30.15 83.7908 30.0742 84.161 30.0389C84.536 30.0028 84.9115 30.0036 85.2865 30.0393C85.7993 30.0884 86.2884 30.2134 86.7207 30.5091C86.9593 30.672 87.1581 30.8739 87.328 31.1146Z" fill="white"/>
<path d="M96.7246 34.771C96.7246 33.2276 96.7246 31.6898 96.7246 30.1479C97.2089 30.1479 97.6906 30.1479 98.1785 30.1479C98.1785 31.241 98.1785 32.3334 98.1785 33.4334C99.0931 33.4334 100.002 33.4334 100.913 33.4334C100.913 33.8834 100.913 34.3256 100.913 34.771C99.517 34.771 98.1231 34.771 96.7246 34.771Z" fill="white"/>
<path d="M63.4654 30.0083C63.899 30.0201 64.3269 30.0569 64.7448 30.1748C65.147 30.2882 65.5114 30.4693 65.8023 30.7779C66.0693 31.061 66.228 31.4 66.292 31.7798C66.3772 32.2844 66.3831 32.7911 66.2609 33.2909C66.1078 33.9178 65.7214 34.3532 65.1354 34.6148C64.804 34.7629 64.4541 34.8379 64.0946 34.8768C63.7054 34.9189 63.3158 34.9209 62.9267 34.8858C62.5131 34.8489 62.1102 34.7659 61.7332 34.5841C61.1569 34.3064 60.7993 33.854 60.6575 33.2309C60.5716 32.8535 60.5781 32.4707 60.6001 32.088C60.615 31.8308 60.6712 31.5814 60.7701 31.3424C60.9524 30.9017 61.2646 30.5837 61.6859 30.3684C62.0099 30.2035 62.3566 30.1112 62.7151 30.0687C62.9643 30.0398 63.2152 30.028 63.4654 30.0083ZM63.4646 33.5702C63.7541 33.5659 64.0404 33.5419 64.3124 33.4329C64.6116 33.3126 64.8198 33.1081 64.87 32.7801C64.8936 32.6266 64.8886 32.4679 64.8874 32.3116C64.8846 31.9279 64.6796 31.6384 64.3227 31.4987C64.0462 31.3902 63.7573 31.3609 63.4642 31.3609C63.1729 31.3613 62.8846 31.3884 62.6112 31.4995C62.3155 31.6197 62.113 31.8247 62.0641 32.1479C62.0414 32.2998 62.0456 32.4565 62.0464 32.6108C62.0492 33.002 62.2561 33.2917 62.6214 33.4335C62.8936 33.5389 63.1771 33.5657 63.4646 33.5702Z" fill="white"/>
<path d="M77.6041 30.0083C78.0377 30.0201 78.4656 30.0569 78.8835 30.1748C79.2856 30.2882 79.6501 30.4693 79.941 30.7779C80.208 31.061 80.3667 31.4 80.4307 31.7798C80.5158 32.2844 80.5218 32.7911 80.3996 33.2909C80.2465 33.9178 79.8601 34.3532 79.2741 34.6148C78.9427 34.7629 78.5928 34.8379 78.2333 34.8768C77.8441 34.9189 77.4545 34.9209 77.0653 34.8858C76.6518 34.8489 76.2489 34.7659 75.8718 34.5841C75.2956 34.3064 74.9379 33.854 74.7962 33.2309C74.7102 32.8535 74.7168 32.4707 74.7387 32.088C74.7537 31.8308 74.8099 31.5814 74.9088 31.3424C75.091 30.9017 75.4033 30.5837 75.8246 30.3684C76.1486 30.2035 76.4953 30.1112 76.8538 30.0687C77.1028 30.0398 77.3538 30.028 77.6041 30.0083ZM77.6033 33.5702C77.8928 33.5659 78.1791 33.5419 78.451 33.4329C78.7503 33.3126 78.9584 33.1081 79.0087 32.7801C79.0322 32.6266 79.0272 32.4679 79.026 32.3116C79.0233 31.9279 78.8183 31.6384 78.4614 31.4987C78.1849 31.3902 77.8959 31.3609 77.6029 31.3609C77.3116 31.3613 77.0233 31.3884 76.7499 31.4995C76.4542 31.6197 76.2516 31.8247 76.2028 32.1479C76.1801 32.2998 76.1843 32.4565 76.1851 32.6108C76.1878 33.002 76.3948 33.2917 76.7601 33.4335C77.0318 33.5389 77.3153 33.5657 77.6033 33.5702Z" fill="white"/>
<path d="M91.7447 30.0083C92.1783 30.0201 92.6062 30.0569 93.0241 30.1748C93.4263 30.2882 93.7907 30.4693 94.0816 30.7779C94.3486 31.061 94.5073 31.4 94.5713 31.7798C94.6565 32.2844 94.6624 32.7911 94.5402 33.2909C94.3871 33.9178 94.0007 34.3532 93.4147 34.6148C93.0833 34.7629 92.7334 34.8379 92.3739 34.8768C91.9847 34.9189 91.5951 34.9209 91.206 34.8858C90.7924 34.8489 90.3895 34.7659 90.0124 34.5841C89.4362 34.3064 89.0786 33.854 88.9368 33.2309C88.8509 32.8535 88.8574 32.4707 88.8794 32.088C88.8943 31.8308 88.9503 31.5814 89.0494 31.3424C89.2317 30.9017 89.5439 30.5837 89.9652 30.3684C90.2892 30.2035 90.6359 30.1112 90.9944 30.0687C91.2436 30.0398 91.4945 30.028 91.7447 30.0083ZM91.7439 33.5702C92.0334 33.5659 92.3197 33.5419 92.5917 33.4329C92.8909 33.3126 93.0991 33.1081 93.1493 32.7801C93.1728 32.6266 93.1679 32.4679 93.1667 32.3116C93.1639 31.9279 92.9589 31.6384 92.602 31.4987C92.3255 31.3902 92.0366 31.3609 91.7435 31.3609C91.452 31.3613 91.1639 31.3884 90.8905 31.4995C90.5948 31.6197 90.3923 31.8247 90.3434 32.1479C90.3207 32.2998 90.3249 32.4565 90.3257 32.6108C90.3285 33.002 90.5354 33.2917 90.9007 33.4335C91.1729 33.5389 91.4564 33.5657 91.7439 33.5702Z" fill="white"/>
<path d="M48.3283 33.4757C48.3283 33.9112 48.3283 34.3396 48.3283 34.7721C47.8555 34.7721 47.3866 34.7721 46.9141 34.7721C46.9141 33.2315 46.9141 31.692 46.9141 30.149C46.9326 30.1478 46.9478 30.1462 46.9635 30.1462C47.9788 30.1466 48.9938 30.1458 50.0091 30.1494C50.2966 30.1502 50.5805 30.1879 50.8542 30.2834C51.2721 30.4292 51.5443 30.7143 51.6581 31.1412C51.7666 31.5473 51.7776 31.9584 51.6671 32.366C51.5309 32.8686 51.1978 33.1876 50.7105 33.3525C50.4258 33.4488 50.1309 33.4765 49.832 33.4761C49.3529 33.4753 48.8738 33.4757 48.3947 33.4757C48.3739 33.4757 48.3532 33.4757 48.3283 33.4757ZM48.3295 32.2009C48.3484 32.2021 48.3624 32.2033 48.3765 32.2033C48.8395 32.2033 49.3021 32.2037 49.7652 32.2025C49.8272 32.2025 49.89 32.1985 49.951 32.1883C50.1018 32.1636 50.2288 32.1004 50.2707 31.9389C50.2864 31.8785 50.2896 31.8121 50.2856 31.7489C50.2762 31.5997 50.2082 31.5148 50.0609 31.4837C49.9576 31.4618 49.8496 31.4538 49.7437 31.453C49.2917 31.4498 48.8393 31.4518 48.3873 31.4518C48.3683 31.4518 48.3496 31.4518 48.3295 31.4518C48.3295 31.7044 48.3295 31.9498 48.3295 32.2009Z" fill="white"/>
<path d="M53.832 30.1467C53.8494 30.1459 53.8635 30.1443 53.8775 30.1443C54.9244 30.1451 55.9718 30.1439 57.0187 30.1479C57.3007 30.1491 57.5792 30.1887 57.847 30.2839C58.2581 30.4296 58.5271 30.7107 58.6407 31.131C58.7542 31.5513 58.7637 31.9758 58.6419 32.3963C58.5209 32.8146 58.2523 33.1079 57.8573 33.2877C57.8314 33.2995 57.8055 33.3109 57.7748 33.3242C58.1722 33.8057 58.5673 34.2844 58.9679 34.7697C58.9452 34.7713 58.9302 34.7733 58.9157 34.7733C58.3781 34.7733 57.84 34.7729 57.3025 34.7745C57.266 34.7745 57.2442 34.762 57.2227 34.7348C56.9023 34.3299 56.5807 33.9262 56.2605 33.5214C56.2338 33.4877 56.2071 33.4724 56.1632 33.4728C55.8785 33.4748 55.5934 33.474 55.3083 33.474C55.2889 33.474 55.2698 33.474 55.2451 33.474C55.2451 33.909 55.2451 34.3391 55.2451 34.7715C54.7715 34.7715 54.3038 34.7715 53.832 34.7715C53.832 33.2313 53.832 31.6919 53.832 30.1467ZM55.2466 32.1985C55.266 32.1993 55.2799 32.2009 55.2937 32.2009C55.7692 32.2009 56.2449 32.2013 56.7201 32.2001C56.7877 32.2001 56.8557 32.1953 56.9222 32.186C57.1328 32.1556 57.2494 32.0508 57.2706 31.8632C57.2973 31.6283 57.2082 31.5039 56.9906 31.4708C56.8959 31.4566 56.7994 31.4508 56.7035 31.4504C56.237 31.4484 55.7704 31.4496 55.3039 31.4496C55.2849 31.4496 55.2662 31.4496 55.2464 31.4496C55.2466 31.7027 55.2466 31.9477 55.2466 32.1985Z" fill="white"/>
<path d="M68.041 30.1482C68.0641 30.1474 68.0873 30.1462 68.1106 30.1462C69.7294 30.1462 71.3486 30.1462 72.9673 30.1462C72.9901 30.1462 73.0128 30.1462 73.0391 30.1462C73.0391 30.5821 73.0391 31.0137 73.0391 31.4504C72.4511 31.4504 71.8646 31.4504 71.2716 31.4504C71.2716 32.5602 71.2716 33.6649 71.2716 34.7727C70.7839 34.7727 70.302 34.7727 69.8165 34.7727C69.8165 33.6671 69.8165 32.5637 69.8165 31.452C69.2219 31.452 68.6318 31.452 68.0414 31.452C68.041 31.0173 68.041 30.5829 68.041 30.1482Z" fill="white"/>
<path d="M44.6486 22.3149C45.1044 23.7905 45.27 25.3224 45.1413 26.8685C45.0126 28.4146 44.5956 29.8976 43.9021 31.276C43.1837 32.7039 42.1995 33.9557 40.9764 34.9968C39.7532 36.0379 38.3638 36.8069 36.8459 37.2822C35.7015 37.6407 34.5229 37.821 33.3299 37.821C32.9954 37.821 32.6602 37.8068 32.324 37.7784C30.7887 37.6488 29.3162 37.2288 27.9475 36.5304C26.5296 35.807 25.2866 34.8158 24.2529 33.584C22.3432 31.3084 21.3389 28.4187 21.425 25.4473C21.5119 22.4621 22.6911 19.6767 24.7453 17.6043C25.8511 16.4886 29.0111 13.8099 30.9439 12.1902C30.9309 12.0879 30.9238 11.9836 30.9238 11.8776C30.9238 10.5472 31.9948 9.46861 33.3159 9.46861C34.6369 9.46861 35.7079 10.5472 35.7079 11.8776C35.7079 13.208 34.6369 14.2866 33.3159 14.2866C33.0547 14.2866 32.8033 14.2444 32.5677 14.1664C30.666 15.7601 27.5741 18.3804 26.5477 19.4157C23.2526 22.7399 23.0991 28.2364 26.1981 31.9288C28.0387 34.1221 30.6731 35.2516 33.3232 35.2516C35.4495 35.2516 37.5854 34.5252 39.3325 33.0381C43.2575 29.6971 43.7515 23.7634 40.434 19.8107C39.8953 19.169 39.2775 18.6045 38.5971 18.1329C38.2448 17.8885 38.0215 17.5023 37.985 17.0729C37.9484 16.6442 38.1026 16.2256 38.408 15.9248C39.4535 14.8955 40.0291 13.5179 40.0291 12.046V11.8158C40.0291 8.56018 37.399 5.91118 34.1659 5.91118H29.1998C27.9425 5.91118 26.9198 6.94114 26.9198 8.20741V12.1007L24.3732 14.3068V8.20774C24.3732 7.55216 24.5009 6.91549 24.753 6.31527C24.996 5.73632 25.344 5.21678 25.7868 4.7705C26.2296 4.32456 26.7458 3.97415 27.3207 3.7294C27.9167 3.47554 28.5489 3.34692 29.1998 3.34692H34.1663C35.301 3.34692 36.4025 3.57108 37.4399 4.01297C38.4415 4.43967 39.3406 5.05002 40.1125 5.82746C40.8845 6.60491 41.4906 7.5103 41.9143 8.51899C42.3531 9.5638 42.5756 10.6731 42.5756 11.8158V12.046C42.5756 13.1398 42.3598 14.2005 41.9337 15.1984C41.692 15.7645 41.3897 16.2955 41.0293 16.7867C41.5134 17.2043 41.9646 17.662 42.3789 18.1556C43.413 19.3871 44.1763 20.7867 44.6486 22.3149ZM31.3958 21.293C32.0049 21.0338 32.6508 20.9021 33.3162 20.9021C33.9816 20.9021 34.6275 21.0338 35.2366 21.293C35.8242 21.5432 36.3515 21.9014 36.804 22.3571C37.2566 22.8128 37.6122 23.3438 37.8606 23.9356C38.118 24.549 38.2488 25.1995 38.2488 25.8696C38.2488 26.5397 38.118 27.1902 37.8606 27.8036C37.6122 28.3954 37.2566 28.9264 36.804 29.3821C36.3515 29.8379 35.8242 30.196 35.2366 30.4462C34.6275 30.7054 33.9816 30.8371 33.3162 30.8371C32.6508 30.8371 32.0049 30.7054 31.3958 30.4462C30.8082 30.196 30.2809 29.8379 29.8284 29.3821C29.3758 28.9264 29.0202 28.3954 28.7718 27.8036C28.5143 27.1902 28.3836 26.5397 28.3836 25.8696C28.3836 25.1995 28.5143 24.549 28.7718 23.9356C29.0202 23.3438 29.3758 22.8128 29.8284 22.3571C30.2809 21.9014 30.8082 21.5435 31.3958 21.293ZM35.7022 25.8699C35.7022 24.5449 34.6319 23.467 33.3162 23.467C32.0005 23.467 30.9302 24.5449 30.9302 25.8699C30.9302 27.1949 32.0005 28.2728 33.3162 28.2728C34.6319 28.2728 35.7022 27.1949 35.7022 25.8699Z" fill="#FC6020"/>
<path d="M46.8633 29.2741C46.8633 26.2916 46.8633 23.3247 46.8633 20.3524C46.8944 20.3496 46.9209 20.345 46.9474 20.345C49.17 20.3461 51.3929 20.343 53.6155 20.352C54.151 20.3539 54.6745 20.4513 55.1603 20.6944C55.861 21.0453 56.2166 21.6276 56.2906 22.395C56.3319 22.8223 56.291 23.2383 56.1075 23.6324C55.9412 23.99 55.6838 24.2619 55.339 24.452C55.3122 24.4668 55.2857 24.4824 55.2592 24.4979C55.2569 24.4995 55.2561 24.5034 55.251 24.5139C55.3176 24.5318 55.3838 24.5478 55.4481 24.5677C56.4527 24.8762 57.0291 25.7346 56.9614 26.8081C56.9321 27.2701 56.8445 27.7134 56.5995 28.1134C56.2649 28.6603 55.757 28.9641 55.1536 29.1288C54.7602 29.236 54.3571 29.2737 53.9504 29.2737C51.6212 29.2741 49.2923 29.2741 46.963 29.2741C46.933 29.2741 46.9022 29.2741 46.8633 29.2741ZM49.5938 26.7404C49.6397 26.7404 49.6767 26.7404 49.7137 26.7404C50.0436 26.7404 50.3732 26.7404 50.7031 26.7404C51.6441 26.74 52.5852 26.7415 53.5263 26.7361C53.6474 26.7353 53.7736 26.7111 53.8877 26.6702C54.093 26.5962 54.1845 26.4073 54.1651 26.1487C54.1491 25.936 54.0396 25.7993 53.8235 25.7537C53.6902 25.7257 53.5512 25.7128 53.4149 25.7124C52.1786 25.7093 50.9419 25.7105 49.7055 25.7105C49.6693 25.7105 49.6331 25.7105 49.5941 25.7105C49.5938 26.0587 49.5938 26.3914 49.5938 26.7404ZM49.5938 23.7785C49.614 23.7828 49.6234 23.7871 49.6331 23.7871C50.7257 23.7875 51.8179 23.7882 52.9104 23.7859C53.0596 23.7855 53.2049 23.7563 53.3292 23.6648C53.4807 23.553 53.5286 23.3987 53.5009 23.2192C53.4748 23.0486 53.3728 22.9379 53.2045 22.9037C53.0877 22.8799 52.9673 22.8651 52.8485 22.8647C51.8007 22.8616 50.7529 22.8632 49.7052 22.8632C49.6689 22.8632 49.6327 22.8632 49.5938 22.8632C49.5938 23.1759 49.5938 23.4743 49.5938 23.7785Z" fill="black"/>
<path d="M97.6124 26.2928C96.4727 26.2928 95.3497 26.2928 94.2186 26.2928C94.2186 25.5609 94.2186 24.8349 94.2186 24.0995C96.2803 24.0995 98.3451 24.0995 100.421 24.0995C100.421 24.1388 100.421 24.1762 100.421 24.2132C100.421 25.5391 100.42 26.865 100.423 28.1909C100.423 28.2743 100.395 28.3183 100.325 28.36C99.5607 28.8126 98.733 29.0942 97.8679 29.2742C96.7582 29.5051 95.6364 29.5706 94.5072 29.4981C93.7294 29.4483 92.9687 29.3092 92.2488 28.9933C91.0655 28.4741 90.3488 27.5763 90.0676 26.3201C89.932 25.7144 89.9301 25.1009 89.9383 24.4855C89.9468 23.8526 90.036 23.2348 90.2682 22.6416C90.6296 21.718 91.2797 21.0718 92.1729 20.6597C92.8191 20.3614 93.505 20.2157 94.2089 20.146C94.9493 20.0723 95.6906 20.0786 96.4314 20.1456C97.8025 20.2694 99.0271 20.7575 100.096 21.6284C100.141 21.6651 100.186 21.7017 100.238 21.7434C99.6484 22.4733 99.0622 23.1993 98.4767 23.9246C98.3268 23.798 98.1877 23.6707 98.0385 23.5561C97.4138 23.0751 96.7033 22.8067 95.9227 22.7175C95.3349 22.6501 94.7499 22.6603 94.173 22.8028C93.6819 22.924 93.2538 23.1464 92.9835 23.5994C92.8549 23.8152 92.7716 24.0508 92.7653 24.3005C92.756 24.6771 92.7361 25.0589 92.7836 25.4305C92.8639 26.058 93.2585 26.4525 93.8369 26.6761C94.2416 26.8327 94.6654 26.8958 95.0946 26.9219C95.6956 26.9581 96.297 26.9531 96.893 26.8607C97.1119 26.8269 97.3253 26.7567 97.5415 26.7046C97.5972 26.6909 97.6175 26.6605 97.6144 26.6017C97.6085 26.5032 97.6124 26.4039 97.6124 26.2928Z" fill="black"/>
<path d="M77.0117 29.2675C77.0117 26.2916 77.0117 23.3259 77.0117 20.3516C77.9473 20.3516 78.8783 20.3516 79.8146 20.3516C79.8146 23.3247 79.8146 26.2936 79.8146 29.2675C78.8798 29.2675 77.9504 29.2675 77.0117 29.2675Z" fill="black"/>
<path d="M80.3379 20.3488C80.7983 20.3476 81.2583 20.3457 81.7187 20.3449C82.1585 20.3441 82.5982 20.3472 83.0376 20.3425C83.1252 20.3418 83.1813 20.3683 83.2378 20.4349C84.5773 22.0143 85.9196 23.5918 87.2611 25.1698C87.2833 25.1959 87.3059 25.2212 87.3448 25.266C87.3448 23.6172 87.3448 21.9894 87.3448 20.3531C88.266 20.3531 89.174 20.3531 90.0881 20.3531C90.0881 23.3243 90.0881 26.2931 90.0881 29.274C90.0484 29.274 90.0114 29.274 89.9748 29.274C89.1124 29.274 88.2504 29.2729 87.388 29.276C87.3101 29.2764 87.2634 29.2491 87.2155 29.1926C85.8814 27.6128 84.5462 26.0341 83.2109 24.4554C83.1786 24.4172 83.1455 24.3802 83.0945 24.3214C83.0945 25.9858 83.0945 27.6221 83.0945 29.2736C82.1686 29.2736 81.2532 29.2736 80.3379 29.2736C80.3379 26.2989 80.3379 23.3239 80.3379 20.3488Z" fill="black"/>
<path d="M62.052 20.082C62.8879 20.1046 63.7136 20.1759 64.5199 20.403C65.2954 20.6215 65.9981 20.9709 66.5594 21.5665C67.0739 22.1126 67.3805 22.7662 67.504 23.4988C67.6683 24.4722 67.6796 25.4495 67.444 26.4135C67.1487 27.6226 66.4032 28.4628 65.2728 28.9672C64.6336 29.2523 63.9582 29.3976 63.2653 29.4724C62.5147 29.553 61.7637 29.5573 61.0127 29.4899C60.215 29.4182 59.438 29.2585 58.7107 28.908C57.5991 28.3724 56.9096 27.4995 56.6358 26.2979C56.4699 25.5699 56.4831 24.8313 56.5256 24.0936C56.554 23.5974 56.6627 23.1163 56.8532 22.6551C57.2045 21.8052 57.8067 21.1914 58.62 20.7769C59.2448 20.4583 59.9135 20.2811 60.6057 20.1993C61.0856 20.1428 61.5697 20.1198 62.052 20.082ZM62.0504 26.9522C62.6086 26.9437 63.1609 26.8977 63.686 26.6866C64.2632 26.4544 64.6648 26.0599 64.7614 25.4277C64.8066 25.1317 64.7972 24.8255 64.7953 24.524C64.7898 23.7843 64.3945 23.2258 63.7062 22.9558C63.173 22.7467 62.616 22.6898 62.05 22.6902C61.488 22.6906 60.9321 22.7432 60.4047 22.9574C59.8345 23.1888 59.4434 23.5845 59.3491 24.2081C59.3047 24.501 59.3133 24.8033 59.3153 25.1017C59.3203 25.8561 59.7196 26.4147 60.4242 26.6881C60.9489 26.8915 61.4957 26.9433 62.0504 26.9522Z" fill="black"/>
<path d="M67.0996 20.3484C67.1331 20.3465 67.1604 20.3438 67.1876 20.3438C69.2073 20.3449 71.2269 20.3426 73.2465 20.3508C73.7906 20.3531 74.327 20.4294 74.8443 20.6129C75.6369 20.8941 76.1565 21.4363 76.3754 22.2473C76.5943 23.0579 76.6126 23.8762 76.3782 24.6876C76.1448 25.4946 75.6264 26.0602 74.8649 26.4069C74.815 26.4295 74.7652 26.4513 74.7064 26.4774C75.4729 27.4064 76.2348 28.3295 77.0072 29.2655C76.9636 29.2686 76.9348 29.2725 76.9063 29.2725C75.8691 29.2729 74.8318 29.2721 73.7945 29.2745C73.724 29.2745 73.6823 29.2499 73.6407 29.1977C73.0225 28.4171 72.402 27.6381 71.7847 26.8568C71.7332 26.7917 71.6818 26.7621 71.5965 26.7629C71.0469 26.7668 70.4973 26.7648 69.9477 26.7648C69.9107 26.7648 69.8737 26.7648 69.8254 26.7648C69.8254 27.6042 69.8254 28.4335 69.8254 29.2675C68.912 29.2675 68.0099 29.2675 67.1 29.2675C67.0996 26.2982 67.0996 23.3294 67.0996 20.3484ZM69.8277 24.3066C69.8648 24.3086 69.892 24.3109 69.9189 24.3109C70.8362 24.3109 71.7531 24.3121 72.6704 24.3098C72.8005 24.3094 72.9318 24.3008 73.0603 24.2825C73.4666 24.2241 73.6913 24.0219 73.7326 23.66C73.784 23.207 73.6126 22.9667 73.1923 22.9032C73.0101 22.8756 72.8235 22.8647 72.6388 22.8639C71.7387 22.86 70.8389 22.8619 69.9388 22.8619C69.9025 22.8619 69.8663 22.8619 69.8277 22.8619C69.8277 23.3496 69.8277 23.8229 69.8277 24.3066Z" fill="black"/>
<path d="M86.9401 31.0441C86.5786 31.351 86.221 31.6548 85.8689 31.9536C85.7435 31.8465 85.627 31.7382 85.502 31.6408C85.1803 31.3908 84.8083 31.2871 84.4051 31.2821C84.1337 31.279 83.8653 31.2977 83.6078 31.3947C83.2678 31.5228 83.0691 31.7655 83.0422 32.1289C83.0282 32.3178 83.0274 32.5122 83.0532 32.6991C83.1022 33.0567 83.3328 33.2686 83.6655 33.3784C83.9276 33.4649 84.1983 33.4793 84.4714 33.47C84.6875 33.4626 84.9006 33.4353 85.1063 33.3648C85.4136 33.2592 85.6566 33.068 85.8514 32.8109C85.8705 32.7856 85.8892 32.7603 85.9098 32.733C86.288 33.0162 86.6635 33.2974 87.041 33.5798C86.8735 33.8229 86.6737 34.0277 86.4396 34.1995C86.0582 34.4796 85.629 34.6475 85.1655 34.7285C84.5088 34.8434 83.854 34.8298 83.2051 34.6732C82.9075 34.6015 82.6294 34.4831 82.3805 34.3016C82.0007 34.025 81.7752 33.6484 81.6665 33.1965C81.5703 32.7965 81.5773 32.3906 81.6011 31.9848C81.6174 31.7043 81.6797 31.4332 81.7946 31.1757C81.9878 30.7434 82.31 30.44 82.7365 30.2433C83.0738 30.0875 83.4318 30.0123 83.7991 29.9772C84.1711 29.9414 84.5438 29.9422 84.9154 29.9776C85.4241 30.0263 85.909 30.1502 86.3379 30.4435C86.5743 30.6051 86.7714 30.8053 86.9401 31.0441Z" fill="black"/>
<path d="M96.2617 34.6705C96.2617 33.1398 96.2617 31.6144 96.2617 30.0852C96.742 30.0852 97.2199 30.0852 97.7037 30.0852C97.7037 31.1692 97.7037 32.2528 97.7037 33.3439C98.6109 33.3439 99.5122 33.3439 100.416 33.3439C100.416 33.7902 100.416 34.2288 100.416 34.6705C99.0308 34.6705 97.6484 34.6705 96.2617 34.6705Z" fill="black"/>
<path d="M63.2735 29.9468C63.7036 29.9585 64.1281 29.9951 64.5426 30.1119C64.9414 30.2245 65.3029 30.4041 65.5915 30.7102C65.8564 30.9911 66.0137 31.3272 66.0772 31.7039C66.1618 32.2044 66.1676 32.7069 66.0465 33.2027C65.8946 33.8244 65.5113 34.2563 64.9301 34.5157C64.6014 34.6626 64.2543 34.737 63.8979 34.7755C63.5119 34.8172 63.1255 34.8192 62.7395 34.7845C62.3294 34.7479 61.9297 34.6657 61.5558 34.4854C60.9844 34.21 60.6295 33.7613 60.4889 33.1431C60.4036 32.7688 60.4102 32.389 60.4321 32.0096C60.4469 31.7545 60.5026 31.5072 60.6007 31.2699C60.7814 30.8329 61.0911 30.5174 61.5091 30.304C61.8304 30.1404 62.1743 30.0488 62.53 30.0068C62.7765 29.9779 63.0254 29.9663 63.2735 29.9468ZM63.2728 33.4796C63.5598 33.4754 63.8438 33.4516 64.1137 33.3433C64.4105 33.2241 64.617 33.0212 64.6668 32.6959C64.6902 32.5436 64.6851 32.3863 64.684 32.2313C64.6812 31.8507 64.4779 31.5636 64.1238 31.425C63.8496 31.3175 63.5629 31.2883 63.2724 31.2883C62.9834 31.2886 62.6975 31.3155 62.4264 31.4258C62.1331 31.5449 61.9321 31.7483 61.8838 32.0688C61.8612 32.2196 61.8655 32.375 61.8662 32.5281C61.869 32.916 62.0742 33.2035 62.4365 33.3441C62.706 33.4485 62.9872 33.475 63.2728 33.4796Z" fill="black"/>
<path d="M77.297 29.9468C77.727 29.9585 78.1516 29.9951 78.566 30.1119C78.9649 30.2245 79.3263 30.4041 79.615 30.7102C79.8798 30.9911 80.0372 31.3272 80.1007 31.7039C80.1852 32.2044 80.191 32.7069 80.0699 33.2027C79.918 33.8244 79.5347 34.2563 78.9536 34.5157C78.6248 34.6626 78.2778 34.737 77.9214 34.7755C77.5354 34.8172 77.149 34.8192 76.763 34.7845C76.3528 34.7479 75.9532 34.6657 75.5792 34.4854C75.0078 34.21 74.653 33.7613 74.5124 33.1431C74.4271 32.7688 74.4337 32.389 74.4555 32.0096C74.4703 31.7545 74.526 31.5072 74.6242 31.2699C74.8049 30.8329 75.1145 30.5174 75.5325 30.304C75.8538 30.1404 76.1978 30.0488 76.5534 30.0068C76.8 29.9779 77.0489 29.9663 77.297 29.9468ZM77.2962 33.4796C77.5833 33.4754 77.8672 33.4516 78.1372 33.3433C78.434 33.2241 78.6404 33.0212 78.6903 32.6959C78.7136 32.5436 78.7086 32.3863 78.7074 32.2313C78.7047 31.8507 78.5013 31.5636 78.1473 31.425C77.8731 31.3175 77.5864 31.2883 77.2958 31.2883C77.0068 31.2886 76.7209 31.3155 76.4498 31.4258C76.1565 31.5449 75.9555 31.7483 75.9072 32.0688C75.8842 32.2196 75.8889 32.375 75.8897 32.5281C75.8924 32.916 76.0977 33.2035 76.4599 33.3441C76.7298 33.4485 77.0111 33.475 77.2962 33.4796Z" fill="black"/>
<path d="M91.3224 29.9468C91.7524 29.9585 92.177 29.9951 92.5914 30.1119C92.9903 30.2245 93.3517 30.4041 93.6403 30.7102C93.9052 30.9911 94.0626 31.3272 94.1261 31.7039C94.2106 32.2044 94.2164 32.7069 94.0953 33.2027C93.9434 33.8244 93.5601 34.2563 92.979 34.5157C92.6502 34.6626 92.3032 34.737 91.9468 34.7755C91.5607 34.8172 91.1744 34.8192 90.7883 34.7845C90.3782 34.7479 89.9786 34.6657 89.6046 34.4854C89.0332 34.21 88.6784 33.7613 88.5378 33.1431C88.4525 32.7688 88.4591 32.389 88.4809 32.0096C88.4957 31.7545 88.5514 31.5072 88.6495 31.2699C88.8303 30.8329 89.1399 30.5174 89.5579 30.304C89.8792 30.1404 90.2232 30.0488 90.5788 30.0068C90.8257 29.9779 91.0746 29.9663 91.3224 29.9468ZM91.322 33.4796C91.609 33.4754 91.893 33.4516 92.1629 33.3433C92.4597 33.2241 92.6662 33.0212 92.716 32.6959C92.7394 32.5436 92.7343 32.3863 92.7332 32.2313C92.7305 31.8507 92.5271 31.5636 92.1731 31.425C91.8988 31.3175 91.6122 31.2883 91.3216 31.2883C91.0326 31.2886 90.7467 31.3155 90.4756 31.4258C90.1823 31.5449 89.9813 31.7483 89.933 32.0688C89.9104 32.2196 89.9147 32.375 89.9155 32.5281C89.9182 32.916 90.1235 33.2035 90.4857 33.3441C90.7552 33.4485 91.0365 33.475 91.322 33.4796Z" fill="black"/>
<path d="M48.2601 33.3858C48.2601 33.8177 48.2601 34.2427 48.2601 34.6715C47.7911 34.6715 47.326 34.6715 46.8574 34.6715C46.8574 33.1435 46.8574 31.6166 46.8574 30.0862C46.8757 30.0851 46.8909 30.0835 46.9065 30.0835C47.9134 30.0839 48.9203 30.0831 49.9272 30.0866C50.2123 30.0874 50.4939 30.1248 50.7654 30.2194C51.1798 30.3639 51.4498 30.6467 51.5627 31.0701C51.6702 31.4729 51.6811 31.8807 51.5717 32.285C51.4365 32.7836 51.1062 33.0999 50.6228 33.2635C50.3404 33.3589 50.0479 33.3866 49.7515 33.3862C49.2763 33.3854 48.8011 33.3858 48.3259 33.3858C48.3052 33.3858 48.2846 33.3858 48.2601 33.3858ZM48.2612 32.1214C48.2799 32.1226 48.2939 32.1238 48.308 32.1238C48.7672 32.1238 49.226 32.1241 49.6853 32.123C49.7468 32.123 49.8091 32.1191 49.8695 32.109C50.0191 32.0844 50.1449 32.0217 50.1866 31.8616C50.2022 31.8016 50.2053 31.7358 50.2014 31.6731C50.192 31.5251 50.1246 31.4409 49.9786 31.4102C49.8761 31.3884 49.769 31.3806 49.6638 31.3798C49.2155 31.3767 48.7668 31.3786 48.3185 31.3786C48.2998 31.3786 48.2811 31.3786 48.2612 31.3786C48.2612 31.6291 48.2612 31.8725 48.2612 32.1214Z" fill="black"/>
<path d="M53.7172 30.0839C53.7343 30.0831 53.7483 30.0815 53.7624 30.0815C54.8008 30.0823 55.8396 30.0812 56.8781 30.085C57.1577 30.0862 57.4339 30.1256 57.6995 30.2198C58.1074 30.3643 58.3742 30.6432 58.4867 31.06C58.5993 31.4768 58.6087 31.8978 58.4879 32.315C58.3679 32.7298 58.1015 33.0208 57.7097 33.1992C57.684 33.2109 57.6583 33.2222 57.6279 33.2354C58.0221 33.713 58.4139 34.1878 58.8112 34.6692C58.7886 34.6708 58.7738 34.6727 58.7594 34.6727C58.2262 34.6727 57.6925 34.6723 57.1593 34.6739C57.1231 34.6739 57.1016 34.6614 57.0802 34.6345C56.7624 34.233 56.4434 33.8325 56.1259 33.4309C56.0994 33.3975 56.0729 33.3823 56.0289 33.3826C55.7465 33.3846 55.4638 33.3838 55.181 33.3838C55.1619 33.3838 55.1428 33.3838 55.1183 33.3838C55.1183 33.8154 55.1183 34.2419 55.1183 34.6708C54.6485 34.6708 54.1846 34.6708 53.7168 34.6708C53.7172 33.1435 53.7172 31.6166 53.7172 30.0839ZM55.1202 32.1191C55.1393 32.1199 55.1533 32.1214 55.1669 32.1214C55.6386 32.1214 56.1103 32.1218 56.5817 32.1206C56.6486 32.1206 56.716 32.116 56.7823 32.1066C56.991 32.0766 57.1067 31.9726 57.1277 31.7864C57.1542 31.5535 57.0658 31.43 56.85 31.3973C56.7562 31.3833 56.6603 31.3774 56.5653 31.3771C56.1026 31.3751 55.6398 31.3763 55.1771 31.3763C55.1584 31.3763 55.1397 31.3763 55.1202 31.3763C55.1202 31.6271 55.1202 31.8702 55.1202 32.1191Z" fill="black"/>
<path d="M67.8105 30.0854C67.8335 30.0847 67.8565 30.0835 67.8795 30.0835C69.4851 30.0835 71.091 30.0835 72.6966 30.0835C72.7192 30.0835 72.7418 30.0835 72.7679 30.0835C72.7679 30.5159 72.7679 30.9439 72.7679 31.3771C72.1848 31.3771 71.6028 31.3771 71.0147 31.3771C71.0147 32.4778 71.0147 33.5735 71.0147 34.6723C70.5309 34.6723 70.053 34.6723 69.5715 34.6723C69.5715 33.5759 69.5715 32.4813 69.5715 31.3786C68.9818 31.3786 68.3964 31.3786 67.8109 31.3786C67.8105 30.9474 67.8105 30.5162 67.8105 30.0854Z" fill="black"/>
</svg>
