<svg width="150" height="24" viewBox="0 0 150 24" fill="none" xmlns="http://www.w3.org/2000/svg">
<path d="M36.1797 23.6156C29.4737 23.6156 24.5488 18.4216 24.5488 11.5724C24.5488 4.72314 29.4737 0.0175781 36.1797 0.0175781H48.7902C48.9686 0.0175781 49.1149 0.163804 49.1149 0.342201V5.66484C49.1149 5.84324 48.9686 5.98946 48.7902 5.98946H36.1797C32.875 5.98946 30.4271 8.48993 30.4271 11.8648C30.4271 15.2397 32.8106 17.6115 36.1797 17.6115H48.7902C48.9686 17.6115 49.1149 17.7578 49.1149 17.9362V23.2939C49.1149 23.4723 48.9686 23.6185 48.7902 23.6185H36.1797V23.6156Z" fill="#0D0D0D"/>
<path d="M63.7544 23.6156C56.9052 23.6156 51.875 18.4216 51.875 11.5724C51.875 4.72314 56.9052 0.0175781 63.7544 0.0175781H69.6941C76.7393 0.0175781 81.6057 4.72314 81.6057 11.5724C81.6057 18.4216 76.6077 23.6156 69.6941 23.6156H63.7544ZM69.6941 17.6115C73.2006 17.6115 75.6339 15.2105 75.6339 11.8648C75.6339 8.51918 73.1656 5.98946 69.6941 5.98946H63.7544C60.3795 5.98946 57.8791 8.48993 57.8791 11.8648C57.8791 15.2397 60.3152 17.6115 63.7544 17.6115H69.6941Z" fill="#0D0D0D"/>
<path d="M89.9267 10.2592V23.2734C89.9267 23.4518 89.7805 23.598 89.6021 23.598H84.6918C84.5134 23.598 84.3672 23.4518 84.3672 23.2734V3.44217C84.3672 1.32481 85.5048 0 87.2742 0C88.1281 0 88.7277 0.283679 89.5173 1.01189L102.874 13.3066C103.081 13.4967 103.418 13.3505 103.418 13.0668V0.356792C103.418 0.178396 103.564 0.0321698 103.742 0.0321698H108.652C108.831 0.0321698 108.977 0.178396 108.977 0.356792V20.1558C108.977 22.2732 107.807 23.598 106.07 23.598C105.216 23.598 104.584 23.3143 103.827 22.5861L90.4736 10.0224C90.266 9.82641 89.9267 9.97556 89.9267 10.2592Z" fill="#0D0D0D"/>
<path d="M111.738 23.2646V0.333412C111.738 0.152091 111.885 0.00878906 112.063 0.00878906H117.412C117.593 0.00878906 117.736 0.155015 117.736 0.333412V23.2646C117.736 23.4459 117.59 23.5893 117.412 23.5893H112.063C111.882 23.5893 111.738 23.443 111.738 23.2646Z" fill="#0D0D0D"/>
<path d="M138.016 1.91244C137.355 0.763099 136.548 0.0231934 135.381 0.0231934C134.214 0.0231934 133.375 0.760174 132.717 1.91244L120.773 23.1211C120.65 23.3375 120.808 23.6066 121.057 23.6066H126.596C126.716 23.6066 126.824 23.5422 126.879 23.437L129.532 18.6203C129.59 18.5179 129.699 18.4506 129.816 18.4506H140.549C140.666 18.4506 140.777 18.515 140.832 18.6173L143.491 23.434C143.549 23.5364 143.657 23.6007 143.774 23.6007H149.673C149.922 23.6007 150.08 23.3317 149.957 23.1153L138.016 1.91244ZM132.334 13.5287L134.884 8.89328C135.007 8.66809 135.328 8.66809 135.454 8.89328L138.016 13.5287C138.136 13.7451 137.978 14.0112 137.732 14.0112H132.62C132.372 14.0112 132.217 13.7451 132.337 13.5287H132.334Z" fill="#0D0D0D"/>
<path d="M20.5273 13.7658H9.98141C9.80301 13.7658 9.65679 13.6196 9.65679 13.4412V10.1891C9.65679 10.0107 9.80301 9.86446 9.98141 9.86446H20.5273C20.7057 9.86446 20.8519 10.0107 20.8519 10.1891V13.4412C20.8519 13.6196 20.7057 13.7658 20.5273 13.7658ZM0 23.288V0.342201C0 0.16088 0.146226 0.0175781 0.324622 0.0175781H21.3958C21.5742 0.0175781 21.7205 0.163804 21.7205 0.342201V5.66484C21.7205 5.84324 21.5742 5.98946 21.3958 5.98946H6.28188C6.10349 5.98946 5.95726 6.13569 5.95726 6.31409V17.284C5.95726 17.4624 6.10349 17.6086 6.28188 17.6086H21.4631C21.6415 17.6086 21.7877 17.7548 21.7877 17.9332V23.288C21.7877 23.4664 21.6415 23.6127 21.4631 23.6127H0.324622C0.146226 23.6127 0 23.4664 0 23.288Z" fill="#0D0D0D"/>
</svg>
