<svg width="135" height="35" viewBox="0 0 135 35" fill="none" xmlns="http://www.w3.org/2000/svg">
<path d="M44.2305 28.619V11.6092H46.7604L47.0014 12.9821H47.1219C47.8447 12.0418 49.0731 11.3682 50.7834 11.3682C53.9136 11.3682 56.4199 13.9226 56.4199 17.7039C56.4199 21.485 53.9158 24.0394 50.7834 24.0394C49.0968 24.0394 47.9178 23.34 47.2918 22.5459H47.1713V28.6168H44.2327L44.2305 28.619ZM53.4791 17.7059C53.4791 15.4894 52.0571 14.0927 50.323 14.0927C48.589 14.0927 47.167 15.4894 47.167 17.7059C47.167 19.9226 48.589 21.3193 50.323 21.3193C52.0571 21.3193 53.4791 19.9226 53.4791 17.7059Z" fill="black"/>
<path d="M57.9102 17.7062C57.9102 14.0197 60.5585 11.3706 64.0996 11.3706C67.6406 11.3706 70.2889 14.0197 70.2889 17.7062C70.2889 21.3927 67.6406 24.0419 64.0996 24.0419C60.5585 24.0419 57.9102 21.3669 57.9102 17.7062ZM67.3266 17.7062C67.3266 15.537 65.8809 14.093 64.0996 14.093C62.3182 14.093 60.8489 15.5392 60.8489 17.7062C60.8489 19.8734 62.3182 21.2959 64.0996 21.2959C65.8809 21.2959 67.3266 19.8755 67.3266 17.7062Z" fill="black"/>
<path d="M72.418 23.8005V6.93701H75.3566V23.8026H72.418V23.8005Z" fill="black"/>
<path d="M86.2663 11.6089H89.3965L84.0977 26.4258C83.5685 27.8956 82.8456 28.6186 80.9417 28.6186H78.0998V25.8963H80.5093C80.9439 25.8963 81.1826 25.679 81.3289 25.3174L81.6172 24.5233L76.6562 11.6089H79.7864L82.9425 20.0665H83.4244L86.2663 11.6089Z" fill="black"/>
<path d="M89.9591 24.4031H92.9452C93.0657 25.1973 93.8595 26.2819 95.7398 26.2819C97.4973 26.2819 98.6548 25.1736 98.6548 23.4863V21.7755H98.5343C97.8846 22.4748 96.6799 23.1012 95.1374 23.1012C92.0072 23.1012 89.5977 20.6908 89.5977 17.2217C89.5977 13.7526 92.0072 11.3682 95.1374 11.3682C96.7508 11.3682 97.932 12.0181 98.6784 12.9348H98.7989L99.0399 11.6092H101.594V23.4863C101.594 26.7144 99.4249 28.86 95.7398 28.86C91.6222 28.86 90.0323 26.1613 89.9591 24.4031ZM98.6548 17.2239C98.6548 15.3215 97.3059 13.9958 95.5957 13.9958C93.8853 13.9958 92.5601 15.3215 92.5601 17.2239C92.5601 19.1263 93.909 20.4757 95.5957 20.4757C97.2823 20.4757 98.6548 19.1499 98.6548 17.2239Z" fill="black"/>
<path d="M103.635 17.7062C103.635 14.0197 106.283 11.3706 109.824 11.3706C113.365 11.3706 116.014 14.0197 116.014 17.7062C116.014 21.3927 113.365 24.0419 109.824 24.0419C106.283 24.0419 103.635 21.3669 103.635 17.7062ZM113.051 17.7062C113.051 15.537 111.605 14.093 109.824 14.093C108.043 14.093 106.574 15.5392 106.574 17.7062C106.574 19.8734 108.043 21.2959 109.824 21.2959C111.605 21.2959 113.051 19.8755 113.051 17.7062Z" fill="black"/>
<path d="M118.061 23.8006V11.6092H120.589L120.829 12.7649H120.95C121.432 12.2118 122.637 11.3682 124.466 11.3682C127.26 11.3682 129.282 13.3911 129.282 16.4749V23.7984H126.344V16.8603C126.344 15.2935 125.236 14.1615 123.719 14.1615C122.202 14.1615 120.997 15.343 120.997 16.8603V23.7984H118.059L118.061 23.8006Z" fill="black"/>
<path d="M27.1244 22.378L34.3485 18.2052C34.7315 17.9835 34.9681 17.5724 34.9681 17.1313V8.78567C34.9681 8.34449 34.7315 7.93346 34.3485 7.71179L27.1244 3.53897C26.7414 3.31731 26.266 3.31947 25.8852 3.53897L18.661 7.71179C18.2781 7.93346 18.0414 8.34449 18.0414 8.78567V23.6993L12.9751 26.624L7.90867 23.6993V17.848L12.9751 14.9234L16.3161 16.8536V12.9283L13.5946 11.3552C13.4074 11.2476 13.1924 11.1895 12.9751 11.1895C12.7577 11.1895 12.5427 11.2476 12.3555 11.3552L5.13131 15.528C4.74837 15.7497 4.51172 16.1608 4.51172 16.6019V24.9476C4.51172 25.3887 4.74837 25.7997 5.13131 26.0214L12.3555 30.1943C12.7384 30.4137 13.2117 30.4137 13.5946 30.1943L20.8188 26.0214C21.2018 25.7997 21.4383 25.3887 21.4383 24.9476V10.0317L21.5287 9.98005L26.5027 7.10707L31.569 10.0317V15.8831L26.5027 18.8078L23.1658 16.8816V20.8071L25.883 22.3759C26.266 22.5954 26.7414 22.5954 27.1222 22.3759L27.1244 22.378Z" fill="url(#paint0_linear_1534_83)"/>
<defs>
<linearGradient id="paint0_linear_1534_83" x1="4.41276" y1="25.7653" x2="33.665" y2="8.79199" gradientUnits="userSpaceOnUse">
<stop stop-color="#A726C1"/>
<stop offset="0.88" stop-color="#803BDF"/>
<stop offset="1" stop-color="#7B3FE4"/>
</linearGradient>
</defs>
</svg>
