<svg width="113" height="30" viewBox="0 0 113 30" fill="none" xmlns="http://www.w3.org/2000/svg">
<g clip-path="url(#clip0_1556_2)">
<path d="M91.4648 29.3442H113V25.2869H98.8043V16.3115H109.29V12.3771H98.8447V4.71311H113V0.655739H91.4648V29.3442ZM47.1035 30C54.1207 25.3279 59.4844 18.1558 59.4844 10.3689C59.4844 4.30328 55.7338 0 50.5719 0C40.3686 0 36.7392 13.6066 36.7392 13.6066L39.038 14.8771C40.8525 11.6803 43.4335 7.70492 48.1118 7.70492C51.4186 7.70492 52.5881 10.6967 52.5881 13.3197C52.5881 18.0328 49.8458 23.4016 44.2804 28.4836L47.1035 30ZM35.0453 30C45.2483 30 48.878 16.3934 48.878 16.3934L46.5792 15.1229C44.7644 18.3197 42.1834 22.2951 37.5054 22.2951C34.1983 22.2951 33.029 19.3033 33.029 16.6803C33.029 11.9672 35.7713 6.59836 41.3364 1.51639L38.5136 0C31.4964 4.67214 26.1328 11.8442 26.1328 19.6311C26.1328 25.6967 29.8833 30 35.0453 30ZM7.33976 13.0328V4.71311H11.2516C13.3083 4.71311 15.1635 5.65575 15.1635 8.85247C15.1635 12.0492 13.4697 13.0328 11.2516 13.0328H7.33976ZM0 29.3442H7.33976V17.0902H12.7841C14.6795 17.0902 15.1635 17.5 15.1635 19.5492V29.3442H22.5032V19.4262C22.5032 15.9426 21.4547 14.5902 17.0992 14.5082V14.2623C19.4786 13.8525 22.6645 11.8853 22.6645 7.82786C22.6645 3.44261 19.8012 0.655739 14.5585 0.655739H0V29.3442ZM69.9697 29.3442H79.6483L88.6821 0.655739H81.5036L75.172 22.8689H74.6881L68.3565 0.655739H60.9362L69.9697 29.3442Z" fill="#2E2E2E"/>
</g>
<defs>
<clipPath id="clip0_1556_2">
<rect width="113" height="30" fill="white"/>
</clipPath>
</defs>
</svg>
