<svg width="70" height="41" viewBox="0 0 70 41" fill="none" xmlns="http://www.w3.org/2000/svg">
<path d="M38.9107 19.6184C38.9141 19.9096 38.9961 20.1945 39.148 20.443C39.2999 20.6915 39.5162 20.8943 39.7739 21.03C40.4275 21.4023 41.1283 21.6852 41.8572 21.8709C42.6707 22.0711 43.4843 22.3114 44.2979 22.5918C45.1076 22.8493 45.8293 23.3278 46.3818 23.9733C46.9754 24.6646 47.284 25.5558 47.2448 26.4661C47.2635 27.0982 47.1299 27.7255 46.8554 28.2952C46.5809 28.8649 46.1735 29.3602 45.6675 29.7395C44.5199 30.5979 43.1107 31.033 41.679 30.9709C40.3729 31.0085 39.083 30.6753 37.9586 30.0098C36.9689 29.4181 36.1964 28.523 35.7559 27.4573L37.9881 26.1658C38.2184 26.8768 38.693 27.4834 39.3277 27.878C40.0334 28.3125 40.8505 28.5317 41.679 28.5087C42.4133 28.5368 43.1422 28.3711 43.7922 28.0282C44.0606 27.869 44.2803 27.6392 44.4272 27.3638C44.5742 27.0884 44.6428 26.778 44.6255 26.4663C44.624 26.1786 44.5425 25.897 44.39 25.653C44.2376 25.409 44.0203 25.2123 43.7623 25.0848C43.1169 24.6957 42.4136 24.4119 41.679 24.2439C40.8655 24.0236 40.052 23.7733 39.2384 23.493C38.4363 23.2202 37.7185 22.7442 37.1551 22.1114C36.5648 21.43 36.2561 20.5494 36.2919 19.6486C36.2786 19.035 36.4058 18.4264 36.6637 17.8695C36.9217 17.3125 37.3035 16.8218 37.78 16.435C38.8478 15.5746 40.1894 15.1269 41.5599 15.1735C42.6885 15.1519 43.801 15.4429 44.7744 16.0145C45.7079 16.535 46.4567 17.3326 46.9173 18.2971L44.7446 19.5285C44.4913 18.9079 44.0446 18.3856 43.4708 18.0393C42.897 17.6929 42.2267 17.5409 41.5596 17.6058C40.8935 17.5859 40.2378 17.775 39.6845 18.1465C39.4373 18.3019 39.2355 18.5199 39.0996 18.7783C38.9637 19.0368 38.8985 19.3266 38.9107 19.6184Z" fill="#1D2947"/>
<path d="M60.4324 15.5637H63.0218V30.581H60.4324V28.4185C59.9374 29.2428 59.2267 29.9162 58.377 30.3661C57.5272 30.816 56.5708 31.0252 55.6108 30.9713C54.8346 31.0061 54.0597 30.877 53.3366 30.5924C52.6135 30.3078 51.9585 29.8741 51.4143 29.3195C50.3163 28.0718 49.7501 26.444 49.8368 24.7843V15.5637H52.4262V24.634C52.3628 25.6777 52.716 26.7038 53.4084 27.4873C53.7686 27.8282 54.1945 28.092 54.6603 28.2625C55.126 28.4329 55.6216 28.5064 56.1168 28.4785C56.6922 28.5029 57.2665 28.4089 57.8041 28.2023C58.3416 27.9956 58.831 27.6807 59.2419 27.2771C60.1139 26.2292 60.5412 24.8817 60.4324 23.5228V15.5637Z" fill="#1D2947"/>
<path d="M68.2736 12.8305C67.9282 12.8327 67.5899 12.7323 67.3015 12.5421C67.0132 12.3519 66.7878 12.0803 66.6539 11.7619C66.5201 11.4435 66.4837 11.0924 66.5495 10.7533C66.6153 10.4142 66.7803 10.1023 67.0236 9.85702C67.1812 9.68283 67.3744 9.54445 67.59 9.4512C67.8056 9.35796 68.0388 9.31201 68.2736 9.31646C68.5038 9.31418 68.7319 9.36124 68.9423 9.45448C69.1528 9.54773 69.3409 9.68499 69.4939 9.85702C69.8181 10.1849 69.9999 10.6274 69.9999 11.0885C69.9999 11.5496 69.8181 11.992 69.4939 12.3199C69.3365 12.4843 69.1469 12.6145 68.9369 12.7023C68.727 12.7902 68.5012 12.8338 68.2736 12.8305ZM66.9643 30.5806V15.5634H69.5536V30.5806H66.9643Z" fill="#1D2947"/>
<path fill-rule="evenodd" clip-rule="evenodd" d="M1.87456 33.2919C3.07122 35.4147 4.81071 37.1813 6.91484 38.4106C9.01897 39.6399 11.4121 40.2878 13.849 40.2878C16.2859 40.2878 18.679 39.6399 20.7831 38.4106C22.8873 37.1813 24.6268 35.4147 25.8234 33.2919C27.0515 31.165 27.698 28.7524 27.698 26.2964C27.698 23.8405 27.0515 21.4279 25.8234 19.301L15.2917 0.84278C15.1475 0.587039 14.9379 0.374223 14.6844 0.226133C14.4309 0.0780422 14.1426 0 13.849 0C13.5554 0 13.2671 0.0780422 13.0136 0.226133C12.7601 0.374223 12.5505 0.587039 12.4063 0.84278L1.87456 19.301C0.646516 21.4279 0 23.8405 0 26.2964C0 28.7524 0.646516 31.165 1.87456 33.2919ZM10.8822 9.62421L13.1276 5.68859C13.1997 5.56072 13.3045 5.45431 13.4313 5.38027C13.558 5.30622 13.7022 5.2672 13.849 5.2672C13.9958 5.2672 14.1399 5.30622 14.2667 5.38027C14.3934 5.45431 14.4982 5.56072 14.5703 5.68859L23.2088 20.8287C23.9843 22.1711 24.4651 23.6632 24.6192 25.2058C24.7732 26.7485 24.5971 28.3062 24.1025 29.7754C23.9951 29.2746 23.8473 28.7833 23.6606 28.3063C22.4674 25.2592 19.7694 22.9078 15.64 21.3171C12.801 20.2274 10.9888 18.6248 10.2524 16.5531C9.30402 13.8839 10.2946 10.9725 10.8822 9.62421ZM7.05325 16.335L4.48913 20.8287C3.52914 22.4912 3.02374 24.3771 3.02374 26.2969C3.02374 28.2166 3.52914 30.1026 4.48913 31.7651C5.26515 33.1398 6.33429 34.3268 7.62065 35.2418C8.90701 36.1569 10.379 36.7775 11.9322 37.0596C13.4854 37.3418 15.0817 37.2785 16.6077 36.8744C18.1337 36.4703 19.552 35.7351 20.762 34.7212C21.4306 33.0118 21.4545 31.1175 20.8291 29.3918C19.9529 27.1903 17.8432 25.4327 14.5592 24.1669C10.8469 22.742 8.43542 20.5175 7.39227 17.5572C7.25177 17.1579 7.1385 16.7496 7.05325 16.335Z" fill="#1D2947"/>
</svg>
